{
  "accessors": [
    {
      "bufferView": 0,
      "byteOffset": 0,
      "componentType": 5126,
      "count": 54,
      "max": [
        0.0315,
        0.000322630384081868,
        0.00032500000000000004
      ],
      "min": [
        -0.0315,
        -0.00032263038408186724,
        -0.00032500000000000004
      ],
      "type": "VEC3"
    },
    {
      "bufferView": 0,
      "byteOffset": 648,
      "componentType": 5126,
      "count": 26,
      "max": [
        -0.0315,
        0.000322630384081868,
        0.00032500000000000004
      ],
      "min": [
        -0.0315,
        -0.00032263038408186724,
        -0.00032500000000000004
      ],
      "type": "VEC3"
    },
    {
      "bufferView": 0,
      "byteOffset": 960,
      "componentType": 5126,
      "count": 26,
      "max": [
        0.0315,
        0.000322630384081868,
        0.00032500000000000004
      ],
      "min": [
        0.0315,
        -0.00032263038408186724,
        -0.00032500000000000004
      ],
      "type": "VEC3"
    },
    {
      "bufferView": 0,
      "byteOffset": 1272,
      "componentType": 5126,
      "count": 54,
      "max": [
        0.0022500000000000003,
        0.000322630384081868,
        0.00032500000000000004
      ],
      "min": [
        -0.0022500000000000003,
        -0.00032263038408186724,
        -0.00032500000000000004
      ],
      "type": "VEC3"
    },
    {
      "bufferView": 0,
      "byteOffset": 1920,
      "componentType": 5126,
      "count": 98,
      "max": [
        0.0022500000000000003,
        0.0017500000000000037,
        0.00175
      ],
      "min": [
        -0.0022500000000000003,
        -0.0017499999999999964,
        -0.00175
      ],
      "type": "VEC3"
    },
    {
      "bufferView": 0,
      "byteOffset": 3096,
      "componentType": 5126,
      "count": 74,
      "max": [
        -0.0022500000000000003,
        0.0017500000000000037,
        0.00175
      ],
      "min": [
        -0.0022500000000000003,
        -0.0017499999999999964,
        -0.00175
      ],
      "type": "VEC3"
    },
    {
      "bufferView": 0,
      "byteOffset": 3984,
      "componentType": 5126,
      "count": 74,
      "max": [
        0.0022500000000000003,
        0.0017500000000000037,
        0.00175
      ],
      "min": [
        0.0022500000000000003,
        -0.0017499999999999964,
        -0.00175
      ],
      "type": "VEC3"
    },
    {
      "bufferView": 1,
      "byteOffset": 0,
      "componentType": 5126,
      "count": 54,
      "type": "VEC3"
    },
    {
      "bufferView": 1,
      "byteOffset": 648,
      "componentType": 5126,
      "count": 26,
      "type": "VEC3"
    },
    {
      "bufferView": 1,
      "byteOffset": 960,
      "componentType": 5126,
      "count": 26,
      "type": "VEC3"
    },
    {
      "bufferView": 1,
      "byteOffset": 1272,
      "componentType": 5126,
      "count": 54,
      "type": "VEC3"
    },
    {
      "bufferView": 1,
      "byteOffset": 1920,
      "componentType": 5126,
      "count": 98,
      "type": "VEC3"
    },
    {
      "bufferView": 1,
      "byteOffset": 3096,
      "componentType": 5126,
      "count": 74,
      "type": "VEC3"
    },
    {
      "bufferView": 1,
      "byteOffset": 3984,
      "componentType": 5126,
      "count": 74,
      "type": "VEC3"
    },
    {
      "bufferView": 2,
      "byteOffset": 0,
      "componentType": 5123,
      "count": 156,
      "type": "SCALAR"
    },
    {
      "bufferView": 2,
      "byteOffset": 312,
      "componentType": 5123,
      "count": 72,
      "type": "SCALAR"
    },
    {
      "bufferView": 2,
      "byteOffset": 456,
      "componentType": 5123,
      "count": 72,
      "type": "SCALAR"
    },
    {
      "bufferView": 2,
      "byteOffset": 600,
      "componentType": 5123,
      "count": 156,
      "type": "SCALAR"
    },
    {
      "bufferView": 2,
      "byteOffset": 912,
      "componentType": 5123,
      "count": 288,
      "type": "SCALAR"
    },
    {
      "bufferView": 2,
      "byteOffset": 1488,
      "componentType": 5123,
      "count": 222,
      "type": "SCALAR"
    },
    {
      "bufferView": 2,
      "byteOffset": 1932,
      "componentType": 5123,
      "count": 222,
      "type": "SCALAR"
    }
  ],
  "asset": {
    "generator": "Open CASCADE Technology 7.8 [dev.opencascade.org]",
    "version": "2.0"
  },
  "bufferViews": [
    {
      "buffer": 0,
      "byteLength": 4872,
      "byteOffset": 0,
      "byteStride": 12,
      "target": 34962
    },
    {
      "buffer": 0,
      "byteLength": 4872,
      "byteOffset": 4872,
      "byteStride": 12,
      "target": 34962
    },
    {
      "buffer": 0,
      "byteLength": 2376,
      "byteOffset": 9744,
      "target": 34963
    }
  ],
  "buffers": [
    {
      "byteLength": 12120,
      "uri": "Ferrite WE-WAFB Sleeve Choke.bin"
    }
  ],
  "materials": [
    {
      "name": "mat_0",
      "pbrMetallicRoughness": {
        "baseColorFactor": [
          0.16826939582824707,
          0.19120168685913086,
          0.2158605307340622,
          1
        ]
      },
      "doubleSided": true
    },
    {
      "name": "mat_1",
      "pbrMetallicRoughness": {
        "baseColorFactor": [
          0.03310476616024971,
          0.03310476616024971,
          0.03310476616024971,
          1
        ]
      },
      "doubleSided": true
    }
  ],
  "meshes": [
    {
      "name": "Draht",
      "primitives": [
        {
          "attributes": {
            "NORMAL": 7,
            "POSITION": 0
          },
          "indices": 14,
          "material": 0,
          "mode": 4
        },
        {
          "attributes": {
            "NORMAL": 8,
            "POSITION": 1
          },
          "indices": 15,
          "material": 0,
          "mode": 4
        },
        {
          "attributes": {
            "NORMAL": 9,
            "POSITION": 2
          },
          "indices": 16,
          "material": 0,
          "mode": 4
        }
      ]
    },
    {
      "name": "Kern",
      "primitives": [
        {
          "attributes": {
            "NORMAL": 10,
            "POSITION": 3
          },
          "indices": 17,
          "material": 1,
          "mode": 4
        },
        {
          "attributes": {
            "NORMAL": 11,
            "POSITION": 4
          },
          "indices": 18,
          "material": 1,
          "mode": 4
        },
        {
          "attributes": {
            "NORMAL": 12,
            "POSITION": 5
          },
          "indices": 19,
          "material": 1,
          "mode": 4
        },
        {
          "attributes": {
            "NORMAL": 13,
            "POSITION": 6
          },
          "indices": 20,
          "material": 1,
          "mode": 4
        }
      ]
    }
  ],
  "nodes": [
    {
      "children": [
        1,
        2
      ],
      "name": "Assem1"
    },
    {
      "mesh": 0,
      "name": "Draht"
    },
    {
      "mesh": 1,
      "name": "Kern"
    }
  ],
  "scene": 0,
  "scenes": [
    {
      "nodes": [
        0
      ]
    }
  ]
}