{"accessors":[{"bufferView":0,"byteOffset":0,"componentType":5126,"count":28,"max":[0.0006,0.000375,0.000475],"min":[-0.0006,0.000375,-0.000475],"type":"VEC3"},{"bufferView":0,"byteOffset":336,"componentType":5126,"count":4,"max":[0.0006,0.000375,-0.000475],"min":[0.00015,-0.000375,-0.000475],"type":"VEC3"},{"bufferView":0,"byteOffset":384,"componentType":5126,"count":4,"max":[-0.00015,0.000375,0.000475],"min":[-0.0006,-0.000375,0.000475],"type":"VEC3"},{"bufferView":0,"byteOffset":432,"componentType":5126,"count":28,"max":[0.0006,-0.000375,0.000475],"min":[-0.0006,-0.000375,-0.000475],"type":"VEC3"},{"bufferView":0,"byteOffset":768,"componentType":5126,"count":4,"max":[0.0006,0.000375,-0.000425],"min":[0.0006,-0.000375,-0.000475],"type":"VEC3"},{"bufferView":0,"byteOffset":816,"componentType":5126,"count":4,"max":[-0.0006,0.000375,0.000125],"min":[-0.0006,-0.000375,-0.000125],"type":"VEC3"},{"bufferView":0,"byteOffset":864,"componentType":5126,"count":4,"max":[0.0006,0.000375,0.000475],"min":[0.0006,-0.000375,0.000425],"type":"VEC3"},{"bufferView":0,"byteOffset":912,"componentType":5126,"count":4,"max":[-0.0006,0.000375,-0.000425],"min":[-0.0006,-0.000375,-0.000475],"type":"VEC3"},{"bufferView":0,"byteOffset":960,"componentType":5126,"count":4,"max":[-0.0006,0.000375,0.000475],"min":[-0.0006,-0.000375,0.000425],"type":"VEC3"},{"bufferView":0,"byteOffset":1008,"componentType":5126,"count":4,"max":[0.0006,0.000375,0.000125],"min":[0.0006,-0.000375,-0.000125],"type":"VEC3"},{"bufferView":0,"byteOffset":1056,"componentType":5126,"count":4,"max":[0.0006,0.000375,0.000475],"min":[0.00015,-0.000375,0.000475],"type":"VEC3"},{"bufferView":0,"byteOffset":1104,"componentType":5126,"count":4,"max":[-0.00015,0.000375,-0.000475],"min":[-0.0006,-0.000375,-0.000475],"type":"VEC3"},{"bufferView":0,"byteOffset":1152,"componentType":5126,"count":4,"max":[-0.000425,0.0004,0.000425],"min":[-0.000425,0.000375,0.000125],"type":"VEC3"},{"bufferView":0,"byteOffset":1200,"componentType":5126,"count":4,"max":[-0.000425,0.0004,0.000425],"min":[-0.000625,0.0004,0.000125],"type":"VEC3"},{"bufferView":0,"byteOffset":1248,"componentType":5126,"count":4,"max":[-0.000625,0.0004,0.000425],"min":[-0.000625,-0.0004,0.000125],"type":"VEC3"},{"bufferView":0,"byteOffset":1296,"componentType":5126,"count":4,"max":[-0.000425,-0.0004,0.000425],"min":[-0.000625,-0.0004,0.000125],"type":"VEC3"},{"bufferView":0,"byteOffset":1344,"componentType":5126,"count":4,"max":[-0.000425,-0.000375,0.000425],"min":[-0.000425,-0.0004,0.000125],"type":"VEC3"},{"bufferView":0,"byteOffset":1392,"componentType":5126,"count":8,"max":[-0.000425,0.0004,0.000425],"min":[-0.000625,-0.0004,0.000425],"type":"VEC3"},{"bufferView":0,"byteOffset":1488,"componentType":5126,"count":8,"max":[-0.000425,0.0004,0.000125],"min":[-0.000625,-0.0004,0.000125],"type":"VEC3"},{"bufferView":0,"byteOffset":1584,"componentType":5126,"count":4,"max":[0.000425,0.0004,0.000425],"min":[0.000425,0.000375,0.000125],"type":"VEC3"},{"bufferView":0,"byteOffset":1632,"componentType":5126,"count":4,"max":[0.000625,0.0004,0.000425],"min":[0.000425,0.0004,0.000125],"type":"VEC3"},{"bufferView":0,"byteOffset":1680,"componentType":5126,"count":4,"max":[0.000625,0.0004,0.000425],"min":[0.000625,-0.0004,0.000125],"type":"VEC3"},{"bufferView":0,"byteOffset":1728,"componentType":5126,"count":4,"max":[0.000625,-0.0004,0.000425],"min":[0.000425,-0.0004,0.000125],"type":"VEC3"},{"bufferView":0,"byteOffset":1776,"componentType":5126,"count":4,"max":[0.000425,-0.000375,0.000425],"min":[0.000425,-0.0004,0.000125],"type":"VEC3"},{"bufferView":0,"byteOffset":1824,"componentType":5126,"count":8,"max":[0.000625,0.0004,0.000425],"min":[0.000425,-0.0004,0.000425],"type":"VEC3"},{"bufferView":0,"byteOffset":1920,"componentType":5126,"count":8,"max":[0.000625,0.0004,0.000125],"min":[0.000425,-0.0004,0.000125],"type":"VEC3"},{"bufferView":0,"byteOffset":2016,"componentType":5126,"count":4,"max":[-0.000425,0.0004,-0.000125],"min":[-0.000425,0.000375,-0.000425],"type":"VEC3"},{"bufferView":0,"byteOffset":2064,"componentType":5126,"count":4,"max":[-0.000425,-0.000375,-0.000125],"min":[-0.000425,-0.0004,-0.000425],"type":"VEC3"},{"bufferView":0,"byteOffset":2112,"componentType":5126,"count":4,"max":[-0.000425,-0.0004,-0.000125],"min":[-0.000625,-0.0004,-0.000425],"type":"VEC3"},{"bufferView":0,"byteOffset":2160,"componentType":5126,"count":4,"max":[-0.000625,0.0004,-0.000125],"min":[-0.000625,-0.0004,-0.000425],"type":"VEC3"},{"bufferView":0,"byteOffset":2208,"componentType":5126,"count":4,"max":[-0.000425,0.0004,-0.000125],"min":[-0.000625,0.0004,-0.000425],"type":"VEC3"},{"bufferView":0,"byteOffset":2256,"componentType":5126,"count":8,"max":[-0.000425,0.0004,-0.000425],"min":[-0.000625,-0.0004,-0.000425],"type":"VEC3"},{"bufferView":0,"byteOffset":2352,"componentType":5126,"count":8,"max":[-0.000425,0.0004,-0.000125],"min":[-0.000625,-0.0004,-0.000125],"type":"VEC3"},{"bufferView":0,"byteOffset":2448,"componentType":5126,"count":4,"max":[0.000425,0.0004,-0.000125],"min":[0.000425,0.000375,-0.000425],"type":"VEC3"},{"bufferView":0,"byteOffset":2496,"componentType":5126,"count":4,"max":[0.000425,-0.000375,-0.000125],"min":[0.000425,-0.0004,-0.000425],"type":"VEC3"},{"bufferView":0,"byteOffset":2544,"componentType":5126,"count":4,"max":[0.000625,-0.0004,-0.000125],"min":[0.000425,-0.0004,-0.000425],"type":"VEC3"},{"bufferView":0,"byteOffset":2592,"componentType":5126,"count":4,"max":[0.000625,0.0004,-0.000125],"min":[0.000625,-0.0004,-0.000425],"type":"VEC3"},{"bufferView":0,"byteOffset":2640,"componentType":5126,"count":4,"max":[0.000625,0.0004,-0.000125],"min":[0.000425,0.0004,-0.000425],"type":"VEC3"},{"bufferView":0,"byteOffset":2688,"componentType":5126,"count":8,"max":[0.000625,0.0004,-0.000425],"min":[0.000425,-0.0004,-0.000425],"type":"VEC3"},{"bufferView":0,"byteOffset":2784,"componentType":5126,"count":8,"max":[0.000625,0.0004,-0.000125],"min":[0.000425,-0.0004,-0.000125],"type":"VEC3"},{"bufferView":0,"byteOffset":2880,"componentType":5126,"count":4,"max":[0.00015,0.000399999999999998,0.000300000000000002],"min":[-0.00015,0.000375,0.000300000000000001],"type":"VEC3"},{"bufferView":0,"byteOffset":2928,"componentType":5126,"count":4,"max":[0.00015,0.000399999999999998,0.000500000000000002],"min":[-0.00015,0.00039999999999999704,0.000300000000000002],"type":"VEC3"},{"bufferView":0,"byteOffset":2976,"componentType":5126,"count":4,"max":[0.00015,0.00039999999999999704,0.000500000000000002],"min":[-0.00015,-0.00040000000000000305,0.0004999999999999981],"type":"VEC3"},{"bufferView":0,"byteOffset":3024,"componentType":5126,"count":4,"max":[0.00015,-0.0004,0.0004999999999999981],"min":[-0.00015,-0.00040000000000000305,0.000342169297365595],"type":"VEC3"},{"bufferView":0,"byteOffset":3072,"componentType":5126,"count":4,"max":[0.00015,-0.000375,0.000342169297365595],"min":[-0.00015,-0.0004,0.000342169297365595],"type":"VEC3"},{"bufferView":0,"byteOffset":3120,"componentType":5126,"count":8,"max":[0.00015,0.000399999999999998,0.000500000000000002],"min":[0.00015,-0.00040000000000000305,0.000300000000000001],"type":"VEC3"},{"bufferView":0,"byteOffset":3216,"componentType":5126,"count":8,"max":[-0.00015,0.000399999999999998,0.000500000000000002],"min":[-0.00015,-0.00040000000000000305,0.000300000000000001],"type":"VEC3"},{"bufferView":0,"byteOffset":3312,"componentType":5126,"count":4,"max":[0.00015,0.000399999999999998,-0.000300000000000001],"min":[-0.00015,0.000375,-0.000300000000000002],"type":"VEC3"},{"bufferView":0,"byteOffset":3360,"componentType":5126,"count":4,"max":[0.00015,0.000399999999999998,-0.000300000000000002],"min":[-0.00015,0.00039999999999999704,-0.000500000000000002],"type":"VEC3"},{"bufferView":0,"byteOffset":3408,"componentType":5126,"count":4,"max":[0.00015,0.00039999999999999704,-0.0004999999999999981],"min":[-0.00015,-0.00040000000000000305,-0.000500000000000002],"type":"VEC3"},{"bufferView":0,"byteOffset":3456,"componentType":5126,"count":4,"max":[0.00015,-0.0004,-0.000342169297365595],"min":[-0.00015,-0.00040000000000000305,-0.0004999999999999981],"type":"VEC3"},{"bufferView":0,"byteOffset":3504,"componentType":5126,"count":4,"max":[0.00015,-0.000375,-0.000342169297365595],"min":[-0.00015,-0.0004,-0.000342169297365595],"type":"VEC3"},{"bufferView":0,"byteOffset":3552,"componentType":5126,"count":8,"max":[0.00015,0.000399999999999998,-0.000300000000000001],"min":[0.00015,-0.00040000000000000305,-0.000500000000000002],"type":"VEC3"},{"bufferView":0,"byteOffset":3648,"componentType":5126,"count":8,"max":[-0.00015,0.000399999999999998,-0.000300000000000001],"min":[-0.00015,-0.00040000000000000305,-0.000500000000000002],"type":"VEC3"},{"bufferView":1,"byteOffset":0,"componentType":5126,"count":28,"type":"VEC3"},{"bufferView":1,"byteOffset":336,"componentType":5126,"count":4,"type":"VEC3"},{"bufferView":1,"byteOffset":384,"componentType":5126,"count":4,"type":"VEC3"},{"bufferView":1,"byteOffset":432,"componentType":5126,"count":28,"type":"VEC3"},{"bufferView":1,"byteOffset":768,"componentType":5126,"count":4,"type":"VEC3"},{"bufferView":1,"byteOffset":816,"componentType":5126,"count":4,"type":"VEC3"},{"bufferView":1,"byteOffset":864,"componentType":5126,"count":4,"type":"VEC3"},{"bufferView":1,"byteOffset":912,"componentType":5126,"count":4,"type":"VEC3"},{"bufferView":1,"byteOffset":960,"componentType":5126,"count":4,"type":"VEC3"},{"bufferView":1,"byteOffset":1008,"componentType":5126,"count":4,"type":"VEC3"},{"bufferView":1,"byteOffset":1056,"componentType":5126,"count":4,"type":"VEC3"},{"bufferView":1,"byteOffset":1104,"componentType":5126,"count":4,"type":"VEC3"},{"bufferView":1,"byteOffset":1152,"componentType":5126,"count":4,"type":"VEC3"},{"bufferView":1,"byteOffset":1200,"componentType":5126,"count":4,"type":"VEC3"},{"bufferView":1,"byteOffset":1248,"componentType":5126,"count":4,"type":"VEC3"},{"bufferView":1,"byteOffset":1296,"componentType":5126,"count":4,"type":"VEC3"},{"bufferView":1,"byteOffset":1344,"componentType":5126,"count":4,"type":"VEC3"},{"bufferView":1,"byteOffset":1392,"componentType":5126,"count":8,"type":"VEC3"},{"bufferView":1,"byteOffset":1488,"componentType":5126,"count":8,"type":"VEC3"},{"bufferView":1,"byteOffset":1584,"componentType":5126,"count":4,"type":"VEC3"},{"bufferView":1,"byteOffset":1632,"componentType":5126,"count":4,"type":"VEC3"},{"bufferView":1,"byteOffset":1680,"componentType":5126,"count":4,"type":"VEC3"},{"bufferView":1,"byteOffset":1728,"componentType":5126,"count":4,"type":"VEC3"},{"bufferView":1,"byteOffset":1776,"componentType":5126,"count":4,"type":"VEC3"},{"bufferView":1,"byteOffset":1824,"componentType":5126,"count":8,"type":"VEC3"},{"bufferView":1,"byteOffset":1920,"componentType":5126,"count":8,"type":"VEC3"},{"bufferView":1,"byteOffset":2016,"componentType":5126,"count":4,"type":"VEC3"},{"bufferView":1,"byteOffset":2064,"componentType":5126,"count":4,"type":"VEC3"},{"bufferView":1,"byteOffset":2112,"componentType":5126,"count":4,"type":"VEC3"},{"bufferView":1,"byteOffset":2160,"componentType":5126,"count":4,"type":"VEC3"},{"bufferView":1,"byteOffset":2208,"componentType":5126,"count":4,"type":"VEC3"},{"bufferView":1,"byteOffset":2256,"componentType":5126,"count":8,"type":"VEC3"},{"bufferView":1,"byteOffset":2352,"componentType":5126,"count":8,"type":"VEC3"},{"bufferView":1,"byteOffset":2448,"componentType":5126,"count":4,"type":"VEC3"},{"bufferView":1,"byteOffset":2496,"componentType":5126,"count":4,"type":"VEC3"},{"bufferView":1,"byteOffset":2544,"componentType":5126,"count":4,"type":"VEC3"},{"bufferView":1,"byteOffset":2592,"componentType":5126,"count":4,"type":"VEC3"},{"bufferView":1,"byteOffset":2640,"componentType":5126,"count":4,"type":"VEC3"},{"bufferView":1,"byteOffset":2688,"componentType":5126,"count":8,"type":"VEC3"},{"bufferView":1,"byteOffset":2784,"componentType":5126,"count":8,"type":"VEC3"},{"bufferView":1,"byteOffset":2880,"componentType":5126,"count":4,"type":"VEC3"},{"bufferView":1,"byteOffset":2928,"componentType":5126,"count":4,"type":"VEC3"},{"bufferView":1,"byteOffset":2976,"componentType":5126,"count":4,"type":"VEC3"},{"bufferView":1,"byteOffset":3024,"componentType":5126,"count":4,"type":"VEC3"},{"bufferView":1,"byteOffset":3072,"componentType":5126,"count":4,"type":"VEC3"},{"bufferView":1,"byteOffset":3120,"componentType":5126,"count":8,"type":"VEC3"},{"bufferView":1,"byteOffset":3216,"componentType":5126,"count":8,"type":"VEC3"},{"bufferView":1,"byteOffset":3312,"componentType":5126,"count":4,"type":"VEC3"},{"bufferView":1,"byteOffset":3360,"componentType":5126,"count":4,"type":"VEC3"},{"bufferView":1,"byteOffset":3408,"componentType":5126,"count":4,"type":"VEC3"},{"bufferView":1,"byteOffset":3456,"componentType":5126,"count":4,"type":"VEC3"},{"bufferView":1,"byteOffset":3504,"componentType":5126,"count":4,"type":"VEC3"},{"bufferView":1,"byteOffset":3552,"componentType":5126,"count":8,"type":"VEC3"},{"bufferView":1,"byteOffset":3648,"componentType":5126,"count":8,"type":"VEC3"},{"bufferView":2,"byteOffset":0,"componentType":5123,"count":78,"type":"SCALAR"},{"bufferView":2,"byteOffset":156,"componentType":5123,"count":6,"type":"SCALAR"},{"bufferView":2,"byteOffset":168,"componentType":5123,"count":6,"type":"SCALAR"},{"bufferView":2,"byteOffset":180,"componentType":5123,"count":78,"type":"SCALAR"},{"bufferView":2,"byteOffset":336,"componentType":5123,"count":6,"type":"SCALAR"},{"bufferView":2,"byteOffset":348,"componentType":5123,"count":6,"type":"SCALAR"},{"bufferView":2,"byteOffset":360,"componentType":5123,"count":6,"type":"SCALAR"},{"bufferView":2,"byteOffset":372,"componentType":5123,"count":6,"type":"SCALAR"},{"bufferView":2,"byteOffset":384,"componentType":5123,"count":6,"type":"SCALAR"},{"bufferView":2,"byteOffset":396,"componentType":5123,"count":6,"type":"SCALAR"},{"bufferView":2,"byteOffset":408,"componentType":5123,"count":6,"type":"SCALAR"},{"bufferView":2,"byteOffset":420,"componentType":5123,"count":6,"type":"SCALAR"},{"bufferView":2,"byteOffset":432,"componentType":5123,"count":6,"type":"SCALAR"},{"bufferView":2,"byteOffset":444,"componentType":5123,"count":6,"type":"SCALAR"},{"bufferView":2,"byteOffset":456,"componentType":5123,"count":6,"type":"SCALAR"},{"bufferView":2,"byteOffset":468,"componentType":5123,"count":6,"type":"SCALAR"},{"bufferView":2,"byteOffset":480,"componentType":5123,"count":6,"type":"SCALAR"},{"bufferView":2,"byteOffset":492,"componentType":5123,"count":18,"type":"SCALAR"},{"bufferView":2,"byteOffset":528,"componentType":5123,"count":18,"type":"SCALAR"},{"bufferView":2,"byteOffset":564,"componentType":5123,"count":6,"type":"SCALAR"},{"bufferView":2,"byteOffset":576,"componentType":5123,"count":6,"type":"SCALAR"},{"bufferView":2,"byteOffset":588,"componentType":5123,"count":6,"type":"SCALAR"},{"bufferView":2,"byteOffset":600,"componentType":5123,"count":6,"type":"SCALAR"},{"bufferView":2,"byteOffset":612,"componentType":5123,"count":6,"type":"SCALAR"},{"bufferView":2,"byteOffset":624,"componentType":5123,"count":18,"type":"SCALAR"},{"bufferView":2,"byteOffset":660,"componentType":5123,"count":18,"type":"SCALAR"},{"bufferView":2,"byteOffset":696,"componentType":5123,"count":6,"type":"SCALAR"},{"bufferView":2,"byteOffset":708,"componentType":5123,"count":6,"type":"SCALAR"},{"bufferView":2,"byteOffset":720,"componentType":5123,"count":6,"type":"SCALAR"},{"bufferView":2,"byteOffset":732,"componentType":5123,"count":6,"type":"SCALAR"},{"bufferView":2,"byteOffset":744,"componentType":5123,"count":6,"type":"SCALAR"},{"bufferView":2,"byteOffset":756,"componentType":5123,"count":18,"type":"SCALAR"},{"bufferView":2,"byteOffset":792,"componentType":5123,"count":18,"type":"SCALAR"},{"bufferView":2,"byteOffset":828,"componentType":5123,"count":6,"type":"SCALAR"},{"bufferView":2,"byteOffset":840,"componentType":5123,"count":6,"type":"SCALAR"},{"bufferView":2,"byteOffset":852,"componentType":5123,"count":6,"type":"SCALAR"},{"bufferView":2,"byteOffset":864,"componentType":5123,"count":6,"type":"SCALAR"},{"bufferView":2,"byteOffset":876,"componentType":5123,"count":6,"type":"SCALAR"},{"bufferView":2,"byteOffset":888,"componentType":5123,"count":18,"type":"SCALAR"},{"bufferView":2,"byteOffset":924,"componentType":5123,"count":18,"type":"SCALAR"},{"bufferView":2,"byteOffset":960,"componentType":5123,"count":6,"type":"SCALAR"},{"bufferView":2,"byteOffset":972,"componentType":5123,"count":6,"type":"SCALAR"},{"bufferView":2,"byteOffset":984,"componentType":5123,"count":6,"type":"SCALAR"},{"bufferView":2,"byteOffset":996,"componentType":5123,"count":6,"type":"SCALAR"},{"bufferView":2,"byteOffset":1008,"componentType":5123,"count":6,"type":"SCALAR"},{"bufferView":2,"byteOffset":1020,"componentType":5123,"count":18,"type":"SCALAR"},{"bufferView":2,"byteOffset":1056,"componentType":5123,"count":18,"type":"SCALAR"},{"bufferView":2,"byteOffset":1092,"componentType":5123,"count":6,"type":"SCALAR"},{"bufferView":2,"byteOffset":1104,"componentType":5123,"count":6,"type":"SCALAR"},{"bufferView":2,"byteOffset":1116,"componentType":5123,"count":6,"type":"SCALAR"},{"bufferView":2,"byteOffset":1128,"componentType":5123,"count":6,"type":"SCALAR"},{"bufferView":2,"byteOffset":1140,"componentType":5123,"count":6,"type":"SCALAR"},{"bufferView":2,"byteOffset":1152,"componentType":5123,"count":18,"type":"SCALAR"},{"bufferView":2,"byteOffset":1188,"componentType":5123,"count":18,"type":"SCALAR"}],"asset":{"generator":"Open CASCADE Technology 7.8 [dev.opencascade.org]","version":"2.0"},"bufferViews":[{"buffer":0,"byteLength":3744,"byteOffset":0,"byteStride":12,"target":34962},{"buffer":0,"byteLength":3744,"byteOffset":3744,"byteStride":12,"target":34962},{"buffer":0,"byteLength":1224,"byteOffset":7488,"target":34963}],"buffers":[{"byteLength":8712,"uri":"WE-CCMF Common Mode Filter.bin"}],"materials":[{"name":"mat_0","pbrMetallicRoughness":{"baseColorFactor":[0.22056177258491516,0.24442830681800842,0.2632734179496765,1.0]},"doubleSided":true},{"name":"mat_1","pbrMetallicRoughness":{"baseColorFactor":[0.7304607629776001,0.35875043272972107,0.02518686093389988,1.0]},"doubleSided":true}],"meshes":[{"name":"748020024","primitives":[{"attributes":{"NORMAL":54,"POSITION":0},"indices":108,"material":0,"mode":4},{"attributes":{"NORMAL":55,"POSITION":1},"indices":109,"material":0,"mode":4},{"attributes":{"NORMAL":56,"POSITION":2},"indices":110,"material":0,"mode":4},{"attributes":{"NORMAL":57,"POSITION":3},"indices":111,"material":0,"mode":4},{"attributes":{"NORMAL":58,"POSITION":4},"indices":112,"material":0,"mode":4},{"attributes":{"NORMAL":59,"POSITION":5},"indices":113,"material":0,"mode":4},{"attributes":{"NORMAL":60,"POSITION":6},"indices":114,"material":0,"mode":4},{"attributes":{"NORMAL":61,"POSITION":7},"indices":115,"material":0,"mode":4},{"attributes":{"NORMAL":62,"POSITION":8},"indices":116,"material":0,"mode":4},{"attributes":{"NORMAL":63,"POSITION":9},"indices":117,"material":0,"mode":4},{"attributes":{"NORMAL":64,"POSITION":10},"indices":118,"material":0,"mode":4},{"attributes":{"NORMAL":65,"POSITION":11},"indices":119,"material":0,"mode":4},{"attributes":{"NORMAL":66,"POSITION":12},"indices":120,"material":1,"mode":4},{"attributes":{"NORMAL":67,"POSITION":13},"indices":121,"material":1,"mode":4},{"attributes":{"NORMAL":68,"POSITION":14},"indices":122,"material":1,"mode":4},{"attributes":{"NORMAL":69,"POSITION":15},"indices":123,"material":1,"mode":4},{"attributes":{"NORMAL":70,"POSITION":16},"indices":124,"material":1,"mode":4},{"attributes":{"NORMAL":71,"POSITION":17},"indices":125,"material":1,"mode":4},{"attributes":{"NORMAL":72,"POSITION":18},"indices":126,"material":1,"mode":4},{"attributes":{"NORMAL":73,"POSITION":19},"indices":127,"material":1,"mode":4},{"attributes":{"NORMAL":74,"POSITION":20},"indices":128,"material":1,"mode":4},{"attributes":{"NORMAL":75,"POSITION":21},"indices":129,"material":1,"mode":4},{"attributes":{"NORMAL":76,"POSITION":22},"indices":130,"material":1,"mode":4},{"attributes":{"NORMAL":77,"POSITION":23},"indices":131,"material":1,"mode":4},{"attributes":{"NORMAL":78,"POSITION":24},"indices":132,"material":1,"mode":4},{"attributes":{"NORMAL":79,"POSITION":25},"indices":133,"material":1,"mode":4},{"attributes":{"NORMAL":80,"POSITION":26},"indices":134,"material":1,"mode":4},{"attributes":{"NORMAL":81,"POSITION":27},"indices":135,"material":1,"mode":4},{"attributes":{"NORMAL":82,"POSITION":28},"indices":136,"material":1,"mode":4},{"attributes":{"NORMAL":83,"POSITION":29},"indices":137,"material":1,"mode":4},{"attributes":{"NORMAL":84,"POSITION":30},"indices":138,"material":1,"mode":4},{"attributes":{"NORMAL":85,"POSITION":31},"indices":139,"material":1,"mode":4},{"attributes":{"NORMAL":86,"POSITION":32},"indices":140,"material":1,"mode":4},{"attributes":{"NORMAL":87,"POSITION":33},"indices":141,"material":1,"mode":4},{"attributes":{"NORMAL":88,"POSITION":34},"indices":142,"material":1,"mode":4},{"attributes":{"NORMAL":89,"POSITION":35},"indices":143,"material":1,"mode":4},{"attributes":{"NORMAL":90,"POSITION":36},"indices":144,"material":1,"mode":4},{"attributes":{"NORMAL":91,"POSITION":37},"indices":145,"material":1,"mode":4},{"attributes":{"NORMAL":92,"POSITION":38},"indices":146,"material":1,"mode":4},{"attributes":{"NORMAL":93,"POSITION":39},"indices":147,"material":1,"mode":4},{"attributes":{"NORMAL":94,"POSITION":40},"indices":148,"material":1,"mode":4},{"attributes":{"NORMAL":95,"POSITION":41},"indices":149,"material":1,"mode":4},{"attributes":{"NORMAL":96,"POSITION":42},"indices":150,"material":1,"mode":4},{"attributes":{"NORMAL":97,"POSITION":43},"indices":151,"material":1,"mode":4},{"attributes":{"NORMAL":98,"POSITION":44},"indices":152,"material":1,"mode":4},{"attributes":{"NORMAL":99,"POSITION":45},"indices":153,"material":1,"mode":4},{"attributes":{"NORMAL":100,"POSITION":46},"indices":154,"material":1,"mode":4},{"attributes":{"NORMAL":101,"POSITION":47},"indices":155,"material":1,"mode":4},{"attributes":{"NORMAL":102,"POSITION":48},"indices":156,"material":1,"mode":4},{"attributes":{"NORMAL":103,"POSITION":49},"indices":157,"material":1,"mode":4},{"attributes":{"NORMAL":104,"POSITION":50},"indices":158,"material":1,"mode":4},{"attributes":{"NORMAL":105,"POSITION":51},"indices":159,"material":1,"mode":4},{"attributes":{"NORMAL":106,"POSITION":52},"indices":160,"material":1,"mode":4},{"attributes":{"NORMAL":107,"POSITION":53},"indices":161,"material":1,"mode":4}]}],"nodes":[{"mesh":0,"name":"748020024"}],"scene":0,"scenes":[{"nodes":[0]}]}