{"accessors":[{"bufferView":0,"byteOffset":0,"componentType":5126,"count":4,"max":[0.00075,-0.001,0.025],"min":[-0.000750000000000009,-0.001,0.024995],"type":"VEC3"},{"bufferView":0,"byteOffset":48,"componentType":5126,"count":18,"max":[-0.00075,-0.00075,0.025],"min":[-0.001,-0.001,-0.025],"type":"VEC3"},{"bufferView":0,"byteOffset":264,"componentType":5126,"count":4,"max":[-0.00075,-0.001,0.024995],"min":[-0.00075,-0.0012,-0.024995],"type":"VEC3"},{"bufferView":0,"byteOffset":312,"componentType":5126,"count":4,"max":[0.00075,-0.0012,0.024995],"min":[-0.00075,-0.0012,-0.024995],"type":"VEC3"},{"bufferView":0,"byteOffset":360,"componentType":5126,"count":4,"max":[0.00075,-0.001,0.024995],"min":[-0.00075,-0.0012,0.024995],"type":"VEC3"},{"bufferView":0,"byteOffset":408,"componentType":5126,"count":4,"max":[-0.001,0.00075,0.025],"min":[-0.001,-0.00075,-0.025],"type":"VEC3"},{"bufferView":0,"byteOffset":456,"componentType":5126,"count":16,"max":[-0.000750000000000009,0.001,0.025],"min":[-0.001,0.00075,-0.025],"type":"VEC3"},{"bufferView":0,"byteOffset":648,"componentType":5126,"count":64,"max":[0.001,0.001,-0.025],"min":[-0.001,-0.001,-0.025],"type":"VEC3"},{"bufferView":0,"byteOffset":1416,"componentType":5126,"count":64,"max":[0.001,0.001,0.025],"min":[-0.001,-0.001,0.025],"type":"VEC3"},{"bufferView":0,"byteOffset":2184,"componentType":5126,"count":4,"max":[0.00075,0.001,0.025],"min":[-0.000750000000000009,0.001,-0.025],"type":"VEC3"},{"bufferView":0,"byteOffset":2232,"componentType":5126,"count":16,"max":[0.001,0.001,0.025],"min":[0.00075,0.00075,-0.025],"type":"VEC3"},{"bufferView":0,"byteOffset":2424,"componentType":5126,"count":4,"max":[0.001,0.00075,0.025],"min":[0.001,-0.00075,-0.025],"type":"VEC3"},{"bufferView":0,"byteOffset":2472,"componentType":5126,"count":18,"max":[0.001,-0.00075,0.025],"min":[0.00075,-0.001,-0.025],"type":"VEC3"},{"bufferView":0,"byteOffset":2688,"componentType":5126,"count":4,"max":[0.00075,-0.001,-0.024995],"min":[-0.000750000000000009,-0.001,-0.025],"type":"VEC3"},{"bufferView":0,"byteOffset":2736,"componentType":5126,"count":4,"max":[0.00075,-0.001,-0.024995],"min":[-0.00075,-0.0012,-0.024995],"type":"VEC3"},{"bufferView":0,"byteOffset":2784,"componentType":5126,"count":4,"max":[0.00075,-0.001,0.024995],"min":[0.00075,-0.0012,-0.024995],"type":"VEC3"},{"bufferView":0,"byteOffset":2832,"componentType":5126,"count":16,"max":[-0.000750000000000009,0.0009000000000000001,0.025],"min":[-0.0009000000000000001,0.00075,0.024995],"type":"VEC3"},{"bufferView":0,"byteOffset":3024,"componentType":5126,"count":4,"max":[-0.0009000000000000001,0.00075,-0.024995],"min":[-0.0009000000000000001,-0.00075,-0.025],"type":"VEC3"},{"bufferView":0,"byteOffset":3072,"componentType":5126,"count":16,"max":[-0.000750000000000009,0.0009000000000000001,-0.024995],"min":[-0.0009000000000000001,0.00075,-0.025],"type":"VEC3"},{"bufferView":0,"byteOffset":3264,"componentType":5126,"count":4,"max":[0.00075,0.0009000000000000001,0.025],"min":[-0.000750000000000009,0.0009000000000000001,0.024995],"type":"VEC3"},{"bufferView":0,"byteOffset":3312,"componentType":5126,"count":16,"max":[0.0009000000000000001,0.0009000000000000001,0.025],"min":[0.00075,0.00075,0.024995],"type":"VEC3"},{"bufferView":0,"byteOffset":3504,"componentType":5126,"count":4,"max":[0.00075,0.0009000000000000001,-0.024995],"min":[-0.000750000000000009,0.0009000000000000001,-0.025],"type":"VEC3"},{"bufferView":0,"byteOffset":3552,"componentType":5126,"count":4,"max":[0.0009000000000000001,0.00075,0.025],"min":[0.0009000000000000001,-0.00075,0.024995],"type":"VEC3"},{"bufferView":0,"byteOffset":3600,"componentType":5126,"count":16,"max":[0.0009000000000000001,0.0009000000000000001,-0.024995],"min":[0.00075,0.00075,-0.025],"type":"VEC3"},{"bufferView":0,"byteOffset":3792,"componentType":5126,"count":4,"max":[0.0009000000000000001,0.00075,-0.024995],"min":[0.0009000000000000001,-0.00075,-0.025],"type":"VEC3"},{"bufferView":0,"byteOffset":3840,"componentType":5126,"count":32,"max":[0.0009000000000000001,0.0009000000000000001,-0.024995],"min":[-0.0009000000000000001,-0.0009000000000000001,-0.024995],"type":"VEC3"},{"bufferView":0,"byteOffset":4224,"componentType":5126,"count":16,"max":[0.0009000000000000001,-0.00075,-0.024995],"min":[0.00075,-0.0009000000000000001,-0.025],"type":"VEC3"},{"bufferView":0,"byteOffset":4416,"componentType":5126,"count":4,"max":[0.00075,-0.0009000000000000001,-0.024995],"min":[-0.000750000000000009,-0.0009000000000000001,-0.025],"type":"VEC3"},{"bufferView":0,"byteOffset":4464,"componentType":5126,"count":16,"max":[-0.000750000000000009,-0.00075,-0.024995],"min":[-0.0009000000000000001,-0.0009000000000000001,-0.025],"type":"VEC3"},{"bufferView":0,"byteOffset":4656,"componentType":5126,"count":32,"max":[0.0009000000000000001,0.0009000000000000001,0.024995],"min":[-0.0009000000000000001,-0.0009000000000000001,0.024995],"type":"VEC3"},{"bufferView":0,"byteOffset":5040,"componentType":5126,"count":4,"max":[-0.0009000000000000001,0.00075,0.025],"min":[-0.0009000000000000001,-0.00075,0.024995],"type":"VEC3"},{"bufferView":0,"byteOffset":5088,"componentType":5126,"count":16,"max":[-0.000750000000000009,-0.00075,0.025],"min":[-0.0009000000000000001,-0.0009000000000000001,0.024995],"type":"VEC3"},{"bufferView":0,"byteOffset":5280,"componentType":5126,"count":4,"max":[0.00075,-0.0009000000000000001,0.025],"min":[-0.000750000000000009,-0.0009000000000000001,0.024995],"type":"VEC3"},{"bufferView":0,"byteOffset":5328,"componentType":5126,"count":16,"max":[0.0009000000000000001,-0.00075,0.025],"min":[0.00075,-0.0009000000000000001,0.024995],"type":"VEC3"},{"bufferView":1,"byteOffset":0,"componentType":5126,"count":4,"type":"VEC3"},{"bufferView":1,"byteOffset":48,"componentType":5126,"count":18,"type":"VEC3"},{"bufferView":1,"byteOffset":264,"componentType":5126,"count":4,"type":"VEC3"},{"bufferView":1,"byteOffset":312,"componentType":5126,"count":4,"type":"VEC3"},{"bufferView":1,"byteOffset":360,"componentType":5126,"count":4,"type":"VEC3"},{"bufferView":1,"byteOffset":408,"componentType":5126,"count":4,"type":"VEC3"},{"bufferView":1,"byteOffset":456,"componentType":5126,"count":16,"type":"VEC3"},{"bufferView":1,"byteOffset":648,"componentType":5126,"count":64,"type":"VEC3"},{"bufferView":1,"byteOffset":1416,"componentType":5126,"count":64,"type":"VEC3"},{"bufferView":1,"byteOffset":2184,"componentType":5126,"count":4,"type":"VEC3"},{"bufferView":1,"byteOffset":2232,"componentType":5126,"count":16,"type":"VEC3"},{"bufferView":1,"byteOffset":2424,"componentType":5126,"count":4,"type":"VEC3"},{"bufferView":1,"byteOffset":2472,"componentType":5126,"count":18,"type":"VEC3"},{"bufferView":1,"byteOffset":2688,"componentType":5126,"count":4,"type":"VEC3"},{"bufferView":1,"byteOffset":2736,"componentType":5126,"count":4,"type":"VEC3"},{"bufferView":1,"byteOffset":2784,"componentType":5126,"count":4,"type":"VEC3"},{"bufferView":1,"byteOffset":2832,"componentType":5126,"count":16,"type":"VEC3"},{"bufferView":1,"byteOffset":3024,"componentType":5126,"count":4,"type":"VEC3"},{"bufferView":1,"byteOffset":3072,"componentType":5126,"count":16,"type":"VEC3"},{"bufferView":1,"byteOffset":3264,"componentType":5126,"count":4,"type":"VEC3"},{"bufferView":1,"byteOffset":3312,"componentType":5126,"count":16,"type":"VEC3"},{"bufferView":1,"byteOffset":3504,"componentType":5126,"count":4,"type":"VEC3"},{"bufferView":1,"byteOffset":3552,"componentType":5126,"count":4,"type":"VEC3"},{"bufferView":1,"byteOffset":3600,"componentType":5126,"count":16,"type":"VEC3"},{"bufferView":1,"byteOffset":3792,"componentType":5126,"count":4,"type":"VEC3"},{"bufferView":1,"byteOffset":3840,"componentType":5126,"count":32,"type":"VEC3"},{"bufferView":1,"byteOffset":4224,"componentType":5126,"count":16,"type":"VEC3"},{"bufferView":1,"byteOffset":4416,"componentType":5126,"count":4,"type":"VEC3"},{"bufferView":1,"byteOffset":4464,"componentType":5126,"count":16,"type":"VEC3"},{"bufferView":1,"byteOffset":4656,"componentType":5126,"count":32,"type":"VEC3"},{"bufferView":1,"byteOffset":5040,"componentType":5126,"count":4,"type":"VEC3"},{"bufferView":1,"byteOffset":5088,"componentType":5126,"count":16,"type":"VEC3"},{"bufferView":1,"byteOffset":5280,"componentType":5126,"count":4,"type":"VEC3"},{"bufferView":1,"byteOffset":5328,"componentType":5126,"count":16,"type":"VEC3"},{"bufferView":2,"byteOffset":0,"componentType":5123,"count":6,"type":"SCALAR"},{"bufferView":2,"byteOffset":12,"componentType":5123,"count":48,"type":"SCALAR"},{"bufferView":2,"byteOffset":108,"componentType":5123,"count":6,"type":"SCALAR"},{"bufferView":2,"byteOffset":120,"componentType":5123,"count":6,"type":"SCALAR"},{"bufferView":2,"byteOffset":132,"componentType":5123,"count":6,"type":"SCALAR"},{"bufferView":2,"byteOffset":144,"componentType":5123,"count":6,"type":"SCALAR"},{"bufferView":2,"byteOffset":156,"componentType":5123,"count":42,"type":"SCALAR"},{"bufferView":2,"byteOffset":240,"componentType":5123,"count":192,"type":"SCALAR"},{"bufferView":2,"byteOffset":624,"componentType":5123,"count":192,"type":"SCALAR"},{"bufferView":2,"byteOffset":1008,"componentType":5123,"count":6,"type":"SCALAR"},{"bufferView":2,"byteOffset":1020,"componentType":5123,"count":42,"type":"SCALAR"},{"bufferView":2,"byteOffset":1104,"componentType":5123,"count":6,"type":"SCALAR"},{"bufferView":2,"byteOffset":1116,"componentType":5123,"count":48,"type":"SCALAR"},{"bufferView":2,"byteOffset":1212,"componentType":5123,"count":6,"type":"SCALAR"},{"bufferView":2,"byteOffset":1224,"componentType":5123,"count":6,"type":"SCALAR"},{"bufferView":2,"byteOffset":1236,"componentType":5123,"count":6,"type":"SCALAR"},{"bufferView":2,"byteOffset":1248,"componentType":5123,"count":42,"type":"SCALAR"},{"bufferView":2,"byteOffset":1332,"componentType":5123,"count":6,"type":"SCALAR"},{"bufferView":2,"byteOffset":1344,"componentType":5123,"count":42,"type":"SCALAR"},{"bufferView":2,"byteOffset":1428,"componentType":5123,"count":6,"type":"SCALAR"},{"bufferView":2,"byteOffset":1440,"componentType":5123,"count":42,"type":"SCALAR"},{"bufferView":2,"byteOffset":1524,"componentType":5123,"count":6,"type":"SCALAR"},{"bufferView":2,"byteOffset":1536,"componentType":5123,"count":6,"type":"SCALAR"},{"bufferView":2,"byteOffset":1548,"componentType":5123,"count":42,"type":"SCALAR"},{"bufferView":2,"byteOffset":1632,"componentType":5123,"count":6,"type":"SCALAR"},{"bufferView":2,"byteOffset":1644,"componentType":5123,"count":90,"type":"SCALAR"},{"bufferView":2,"byteOffset":1824,"componentType":5123,"count":42,"type":"SCALAR"},{"bufferView":2,"byteOffset":1908,"componentType":5123,"count":6,"type":"SCALAR"},{"bufferView":2,"byteOffset":1920,"componentType":5123,"count":42,"type":"SCALAR"},{"bufferView":2,"byteOffset":2004,"componentType":5123,"count":90,"type":"SCALAR"},{"bufferView":2,"byteOffset":2184,"componentType":5123,"count":6,"type":"SCALAR"},{"bufferView":2,"byteOffset":2196,"componentType":5123,"count":42,"type":"SCALAR"},{"bufferView":2,"byteOffset":2280,"componentType":5123,"count":6,"type":"SCALAR"},{"bufferView":2,"byteOffset":2292,"componentType":5123,"count":42,"type":"SCALAR"}],"asset":{"generator":"Open CASCADE Technology 7.8 [dev.opencascade.org]","version":"2.0"},"bufferViews":[{"buffer":0,"byteLength":5520,"byteOffset":0,"byteStride":12,"target":34962},{"buffer":0,"byteLength":5520,"byteOffset":5520,"byteStride":12,"target":34962},{"buffer":0,"byteLength":2376,"byteOffset":11040,"target":34963}],"buffers":[{"byteLength":13416,"uri":"WE-CSGS Contact Spring Gasket.bin"}],"materials":[{"name":"mat_0","pbrMetallicRoughness":{"baseColorFactor":[0.5209956169128418,0.43965721130371094,0.26635563373565674,1.0]},"doubleSided":true},{"name":"mat_1","pbrMetallicRoughness":{"baseColorFactor":[1.0,1.0,1.0,1.0]},"doubleSided":true},{"name":"mat_2","pbrMetallicRoughness":{"baseColorFactor":[0.03310476616024971,0.03310476616024971,0.03310476616024971,1.0]},"doubleSided":true}],"meshes":[{"name":"1","primitives":[{"attributes":{"NORMAL":34,"POSITION":0},"indices":68,"material":0,"mode":4},{"attributes":{"NORMAL":35,"POSITION":1},"indices":69,"material":0,"mode":4},{"attributes":{"NORMAL":36,"POSITION":2},"indices":70,"material":1,"mode":4},{"attributes":{"NORMAL":37,"POSITION":3},"indices":71,"material":1,"mode":4},{"attributes":{"NORMAL":38,"POSITION":4},"indices":72,"material":1,"mode":4},{"attributes":{"NORMAL":39,"POSITION":5},"indices":73,"material":0,"mode":4},{"attributes":{"NORMAL":40,"POSITION":6},"indices":74,"material":0,"mode":4},{"attributes":{"NORMAL":41,"POSITION":7},"indices":75,"material":0,"mode":4},{"attributes":{"NORMAL":42,"POSITION":8},"indices":76,"material":0,"mode":4},{"attributes":{"NORMAL":43,"POSITION":9},"indices":77,"material":0,"mode":4},{"attributes":{"NORMAL":44,"POSITION":10},"indices":78,"material":0,"mode":4},{"attributes":{"NORMAL":45,"POSITION":11},"indices":79,"material":0,"mode":4},{"attributes":{"NORMAL":46,"POSITION":12},"indices":80,"material":0,"mode":4},{"attributes":{"NORMAL":47,"POSITION":13},"indices":81,"material":0,"mode":4},{"attributes":{"NORMAL":48,"POSITION":14},"indices":82,"material":1,"mode":4},{"attributes":{"NORMAL":49,"POSITION":15},"indices":83,"material":1,"mode":4},{"attributes":{"NORMAL":50,"POSITION":16},"indices":84,"material":0,"mode":4},{"attributes":{"NORMAL":51,"POSITION":17},"indices":85,"material":0,"mode":4},{"attributes":{"NORMAL":52,"POSITION":18},"indices":86,"material":0,"mode":4},{"attributes":{"NORMAL":53,"POSITION":19},"indices":87,"material":0,"mode":4},{"attributes":{"NORMAL":54,"POSITION":20},"indices":88,"material":0,"mode":4},{"attributes":{"NORMAL":55,"POSITION":21},"indices":89,"material":0,"mode":4},{"attributes":{"NORMAL":56,"POSITION":22},"indices":90,"material":0,"mode":4},{"attributes":{"NORMAL":57,"POSITION":23},"indices":91,"material":0,"mode":4},{"attributes":{"NORMAL":58,"POSITION":24},"indices":92,"material":0,"mode":4},{"attributes":{"NORMAL":59,"POSITION":25},"indices":93,"material":2,"mode":4},{"attributes":{"NORMAL":60,"POSITION":26},"indices":94,"material":0,"mode":4},{"attributes":{"NORMAL":61,"POSITION":27},"indices":95,"material":0,"mode":4},{"attributes":{"NORMAL":62,"POSITION":28},"indices":96,"material":0,"mode":4},{"attributes":{"NORMAL":63,"POSITION":29},"indices":97,"material":2,"mode":4},{"attributes":{"NORMAL":64,"POSITION":30},"indices":98,"material":0,"mode":4},{"attributes":{"NORMAL":65,"POSITION":31},"indices":99,"material":0,"mode":4},{"attributes":{"NORMAL":66,"POSITION":32},"indices":100,"material":0,"mode":4},{"attributes":{"NORMAL":67,"POSITION":33},"indices":101,"material":0,"mode":4}]}],"nodes":[{"mesh":0,"name":"1"}],"scene":0,"scenes":[{"nodes":[0]}]}