{"accessors":[{"bufferView":0,"byteOffset":0,"componentType":5126,"count":4,"max":[0.00014000000000000001,-0.00015,0.00015],"min":[-0.00014000000000000001,-0.00015,-0.00015],"type":"VEC3"},{"bufferView":0,"byteOffset":48,"componentType":5126,"count":16,"max":[0.00015,0.00015,0.00015],"min":[0.00014000000000000001,0.00014000000000000001,-0.00015],"type":"VEC3"},{"bufferView":0,"byteOffset":240,"componentType":5126,"count":4,"max":[0.00014000000000000001,0.00015,0.00015],"min":[-0.00014000000000000001,0.00015,-0.00015],"type":"VEC3"},{"bufferView":0,"byteOffset":288,"componentType":5126,"count":4,"max":[-0.00015,0.00014000000000000001,0.00015],"min":[-0.00015,-0.00014000000000000001,-0.00015],"type":"VEC3"},{"bufferView":0,"byteOffset":336,"componentType":5126,"count":32,"max":[0.00015,0.00015,0.00015],"min":[-0.00015,-0.00015,0.00015],"type":"VEC3"},{"bufferView":0,"byteOffset":720,"componentType":5126,"count":16,"max":[0.00015,-0.00014000000000000001,0.00015],"min":[0.00014000000000000001,-0.00015,-0.00015],"type":"VEC3"},{"bufferView":0,"byteOffset":912,"componentType":5126,"count":16,"max":[-0.00014000000000000001,-0.00014000000000000001,0.00015],"min":[-0.00015,-0.00015,-0.00015],"type":"VEC3"},{"bufferView":0,"byteOffset":1104,"componentType":5126,"count":16,"max":[-0.00014000000000000001,0.00015,0.00015],"min":[-0.00015,0.00014000000000000001,-0.00015],"type":"VEC3"},{"bufferView":0,"byteOffset":1296,"componentType":5126,"count":32,"max":[0.00015,0.00015,-0.00015],"min":[-0.00015,-0.00015,-0.00015],"type":"VEC3"},{"bufferView":0,"byteOffset":1680,"componentType":5126,"count":4,"max":[0.00015,0.00014000000000000001,0.00015],"min":[0.00015,-0.00014000000000000001,-0.00015],"type":"VEC3"},{"bufferView":0,"byteOffset":1728,"componentType":5126,"count":4,"max":[0.00014000000000000001,0.00015,0.00014000000000000004],"min":[-0.00014000000000000001,0.00015,0.0],"type":"VEC3"},{"bufferView":0,"byteOffset":1776,"componentType":5126,"count":4,"max":[0.00014000000000000001,0.00014000000000000001,0.00015],"min":[-0.00014000000000000001,-0.00014000000000000001,0.00015],"type":"VEC3"},{"bufferView":0,"byteOffset":1824,"componentType":5126,"count":4,"max":[0.00015,0.00014000000000000001,0.00014000000000000004],"min":[0.00015,-0.00014000000000000001,0.0],"type":"VEC3"},{"bufferView":0,"byteOffset":1872,"componentType":5126,"count":4,"max":[-0.00015,0.00014000000000000001,0.00014000000000000004],"min":[-0.00015,-0.00014000000000000001,0.0],"type":"VEC3"},{"bufferView":0,"byteOffset":1920,"componentType":5126,"count":4,"max":[0.00014000000000000001,-0.00015,0.00014000000000000004],"min":[-0.00014000000000000001,-0.00015,0.0],"type":"VEC3"},{"bufferView":0,"byteOffset":1968,"componentType":5126,"count":16,"max":[0.00015,-0.00014000000000000001,0.00014000000000000004],"min":[0.00014000000000000001,-0.00015,0.0],"type":"VEC3"},{"bufferView":0,"byteOffset":2160,"componentType":5126,"count":40,"max":[0.00015,-0.00014000000000000001,0.00015],"min":[0.00014,-0.00015,0.00014000000000000004],"type":"VEC3"},{"bufferView":0,"byteOffset":2640,"componentType":5126,"count":16,"max":[0.00015,0.00014000000000000001,0.00015],"min":[0.00014000000000000001,-0.00014000000000000001,0.00014000000000000004],"type":"VEC3"},{"bufferView":0,"byteOffset":2832,"componentType":5126,"count":16,"max":[0.00014000000000000001,-0.00014000000000000001,0.00015],"min":[-0.00014000000000000001,-0.00015,0.00014000000000000004],"type":"VEC3"},{"bufferView":0,"byteOffset":3024,"componentType":5126,"count":40,"max":[0.00015,0.00015,0.00015],"min":[0.00014000000000000001,0.00014,0.00014000000000000004],"type":"VEC3"},{"bufferView":0,"byteOffset":3504,"componentType":5126,"count":40,"max":[-0.00014000000000000001,-0.00014000000000000001,0.00015],"min":[-0.00015,-0.00015,0.00014000000000000004],"type":"VEC3"},{"bufferView":0,"byteOffset":3984,"componentType":5126,"count":16,"max":[0.00015,0.00015,0.00014000000000000004],"min":[0.00014000000000000001,0.00014000000000000001,0.0],"type":"VEC3"},{"bufferView":0,"byteOffset":4176,"componentType":5126,"count":16,"max":[0.00014000000000000004,0.00015,0.00015],"min":[-0.00014000000000000001,0.00014000000000000001,0.00014000000000000004],"type":"VEC3"},{"bufferView":0,"byteOffset":4368,"componentType":5126,"count":16,"max":[-0.00014000000000000001,0.00014000000000000004,0.00015],"min":[-0.00015,-0.00014000000000000001,0.00014000000000000004],"type":"VEC3"},{"bufferView":0,"byteOffset":4560,"componentType":5126,"count":16,"max":[-0.00014000000000000001,-0.00014000000000000001,0.00014000000000000004],"min":[-0.00015,-0.00015,0.0],"type":"VEC3"},{"bufferView":0,"byteOffset":4752,"componentType":5126,"count":40,"max":[-0.00014000000000000001,0.00015,0.00015],"min":[-0.00015,0.00014000000000000001,0.00014000000000000004],"type":"VEC3"},{"bufferView":0,"byteOffset":5232,"componentType":5126,"count":16,"max":[-0.00014000000000000001,0.00015,0.00014000000000000004],"min":[-0.00015,0.00014000000000000001,0.0],"type":"VEC3"},{"bufferView":0,"byteOffset":5424,"componentType":5126,"count":32,"max":[0.00015,0.00015,0.0],"min":[-0.00015,-0.00015,0.0],"type":"VEC3"},{"bufferView":1,"byteOffset":0,"componentType":5126,"count":4,"type":"VEC3"},{"bufferView":1,"byteOffset":48,"componentType":5126,"count":16,"type":"VEC3"},{"bufferView":1,"byteOffset":240,"componentType":5126,"count":4,"type":"VEC3"},{"bufferView":1,"byteOffset":288,"componentType":5126,"count":4,"type":"VEC3"},{"bufferView":1,"byteOffset":336,"componentType":5126,"count":32,"type":"VEC3"},{"bufferView":1,"byteOffset":720,"componentType":5126,"count":16,"type":"VEC3"},{"bufferView":1,"byteOffset":912,"componentType":5126,"count":16,"type":"VEC3"},{"bufferView":1,"byteOffset":1104,"componentType":5126,"count":16,"type":"VEC3"},{"bufferView":1,"byteOffset":1296,"componentType":5126,"count":32,"type":"VEC3"},{"bufferView":1,"byteOffset":1680,"componentType":5126,"count":4,"type":"VEC3"},{"bufferView":1,"byteOffset":1728,"componentType":5126,"count":4,"type":"VEC3"},{"bufferView":1,"byteOffset":1776,"componentType":5126,"count":4,"type":"VEC3"},{"bufferView":1,"byteOffset":1824,"componentType":5126,"count":4,"type":"VEC3"},{"bufferView":1,"byteOffset":1872,"componentType":5126,"count":4,"type":"VEC3"},{"bufferView":1,"byteOffset":1920,"componentType":5126,"count":4,"type":"VEC3"},{"bufferView":1,"byteOffset":1968,"componentType":5126,"count":16,"type":"VEC3"},{"bufferView":1,"byteOffset":2160,"componentType":5126,"count":40,"type":"VEC3"},{"bufferView":1,"byteOffset":2640,"componentType":5126,"count":16,"type":"VEC3"},{"bufferView":1,"byteOffset":2832,"componentType":5126,"count":16,"type":"VEC3"},{"bufferView":1,"byteOffset":3024,"componentType":5126,"count":40,"type":"VEC3"},{"bufferView":1,"byteOffset":3504,"componentType":5126,"count":40,"type":"VEC3"},{"bufferView":1,"byteOffset":3984,"componentType":5126,"count":16,"type":"VEC3"},{"bufferView":1,"byteOffset":4176,"componentType":5126,"count":16,"type":"VEC3"},{"bufferView":1,"byteOffset":4368,"componentType":5126,"count":16,"type":"VEC3"},{"bufferView":1,"byteOffset":4560,"componentType":5126,"count":16,"type":"VEC3"},{"bufferView":1,"byteOffset":4752,"componentType":5126,"count":40,"type":"VEC3"},{"bufferView":1,"byteOffset":5232,"componentType":5126,"count":16,"type":"VEC3"},{"bufferView":1,"byteOffset":5424,"componentType":5126,"count":32,"type":"VEC3"},{"bufferView":2,"byteOffset":0,"componentType":5123,"count":6,"type":"SCALAR"},{"bufferView":2,"byteOffset":12,"componentType":5123,"count":42,"type":"SCALAR"},{"bufferView":2,"byteOffset":96,"componentType":5123,"count":6,"type":"SCALAR"},{"bufferView":2,"byteOffset":108,"componentType":5123,"count":6,"type":"SCALAR"},{"bufferView":2,"byteOffset":120,"componentType":5123,"count":90,"type":"SCALAR"},{"bufferView":2,"byteOffset":300,"componentType":5123,"count":42,"type":"SCALAR"},{"bufferView":2,"byteOffset":384,"componentType":5123,"count":42,"type":"SCALAR"},{"bufferView":2,"byteOffset":468,"componentType":5123,"count":42,"type":"SCALAR"},{"bufferView":2,"byteOffset":552,"componentType":5123,"count":90,"type":"SCALAR"},{"bufferView":2,"byteOffset":732,"componentType":5123,"count":6,"type":"SCALAR"},{"bufferView":2,"byteOffset":744,"componentType":5123,"count":6,"type":"SCALAR"},{"bufferView":2,"byteOffset":756,"componentType":5123,"count":6,"type":"SCALAR"},{"bufferView":2,"byteOffset":768,"componentType":5123,"count":6,"type":"SCALAR"},{"bufferView":2,"byteOffset":780,"componentType":5123,"count":6,"type":"SCALAR"},{"bufferView":2,"byteOffset":792,"componentType":5123,"count":6,"type":"SCALAR"},{"bufferView":2,"byteOffset":804,"componentType":5123,"count":42,"type":"SCALAR"},{"bufferView":2,"byteOffset":888,"componentType":5123,"count":168,"type":"SCALAR"},{"bufferView":2,"byteOffset":1224,"componentType":5123,"count":42,"type":"SCALAR"},{"bufferView":2,"byteOffset":1308,"componentType":5123,"count":42,"type":"SCALAR"},{"bufferView":2,"byteOffset":1392,"componentType":5123,"count":168,"type":"SCALAR"},{"bufferView":2,"byteOffset":1728,"componentType":5123,"count":168,"type":"SCALAR"},{"bufferView":2,"byteOffset":2064,"componentType":5123,"count":42,"type":"SCALAR"},{"bufferView":2,"byteOffset":2148,"componentType":5123,"count":42,"type":"SCALAR"},{"bufferView":2,"byteOffset":2232,"componentType":5123,"count":42,"type":"SCALAR"},{"bufferView":2,"byteOffset":2316,"componentType":5123,"count":42,"type":"SCALAR"},{"bufferView":2,"byteOffset":2400,"componentType":5123,"count":168,"type":"SCALAR"},{"bufferView":2,"byteOffset":2736,"componentType":5123,"count":42,"type":"SCALAR"},{"bufferView":2,"byteOffset":2820,"componentType":5123,"count":90,"type":"SCALAR"}],"asset":{"generator":"Open CASCADE Technology 7.8 [dev.opencascade.org]","version":"2.0"},"bufferViews":[{"buffer":0,"byteLength":5808,"byteOffset":0,"byteStride":12,"target":34962},{"buffer":0,"byteLength":5808,"byteOffset":5808,"byteStride":12,"target":34962},{"buffer":0,"byteLength":3000,"byteOffset":11616,"target":34963}],"buffers":[{"byteLength":14616,"uri":"Unnamed-Assem1.bin"}],"materials":[{"name":"mat_0","pbrMetallicRoughness":{"baseColorFactor":[0.03310476616024971,0.03310476616024971,0.03310476616024971,1.0]},"doubleSided":true},{"name":"mat_1","pbrMetallicRoughness":{"baseColorFactor":[0.955104649066925,0.955104649066925,0.955104649066925,1.0]},"doubleSided":true}],"meshes":[{"name":"Ferrite","primitives":[{"attributes":{"NORMAL":28,"POSITION":0},"indices":56,"material":0,"mode":4},{"attributes":{"NORMAL":29,"POSITION":1},"indices":57,"material":0,"mode":4},{"attributes":{"NORMAL":30,"POSITION":2},"indices":58,"material":0,"mode":4},{"attributes":{"NORMAL":31,"POSITION":3},"indices":59,"material":0,"mode":4},{"attributes":{"NORMAL":32,"POSITION":4},"indices":60,"material":0,"mode":4},{"attributes":{"NORMAL":33,"POSITION":5},"indices":61,"material":0,"mode":4},{"attributes":{"NORMAL":34,"POSITION":6},"indices":62,"material":0,"mode":4},{"attributes":{"NORMAL":35,"POSITION":7},"indices":63,"material":0,"mode":4},{"attributes":{"NORMAL":36,"POSITION":8},"indices":64,"material":0,"mode":4},{"attributes":{"NORMAL":37,"POSITION":9},"indices":65,"material":0,"mode":4}]},{"name":"Pad","primitives":[{"attributes":{"NORMAL":38,"POSITION":10},"indices":66,"material":1,"mode":4},{"attributes":{"NORMAL":39,"POSITION":11},"indices":67,"material":1,"mode":4},{"attributes":{"NORMAL":40,"POSITION":12},"indices":68,"material":1,"mode":4},{"attributes":{"NORMAL":41,"POSITION":13},"indices":69,"material":1,"mode":4},{"attributes":{"NORMAL":42,"POSITION":14},"indices":70,"material":1,"mode":4},{"attributes":{"NORMAL":43,"POSITION":15},"indices":71,"material":1,"mode":4},{"attributes":{"NORMAL":44,"POSITION":16},"indices":72,"material":1,"mode":4},{"attributes":{"NORMAL":45,"POSITION":17},"indices":73,"material":1,"mode":4},{"attributes":{"NORMAL":46,"POSITION":18},"indices":74,"material":1,"mode":4},{"attributes":{"NORMAL":47,"POSITION":19},"indices":75,"material":1,"mode":4},{"attributes":{"NORMAL":48,"POSITION":20},"indices":76,"material":1,"mode":4},{"attributes":{"NORMAL":49,"POSITION":21},"indices":77,"material":1,"mode":4},{"attributes":{"NORMAL":50,"POSITION":22},"indices":78,"material":1,"mode":4},{"attributes":{"NORMAL":51,"POSITION":23},"indices":79,"material":1,"mode":4},{"attributes":{"NORMAL":52,"POSITION":24},"indices":80,"material":1,"mode":4},{"attributes":{"NORMAL":53,"POSITION":25},"indices":81,"material":1,"mode":4},{"attributes":{"NORMAL":54,"POSITION":26},"indices":82,"material":1,"mode":4},{"attributes":{"NORMAL":55,"POSITION":27},"indices":83,"material":1,"mode":4}]},{"name":"Pad","primitives":[{"attributes":{"NORMAL":38,"POSITION":10},"indices":66,"material":1,"mode":4},{"attributes":{"NORMAL":39,"POSITION":11},"indices":67,"material":1,"mode":4},{"attributes":{"NORMAL":40,"POSITION":12},"indices":68,"material":1,"mode":4},{"attributes":{"NORMAL":41,"POSITION":13},"indices":69,"material":1,"mode":4},{"attributes":{"NORMAL":42,"POSITION":14},"indices":70,"material":1,"mode":4},{"attributes":{"NORMAL":43,"POSITION":15},"indices":71,"material":1,"mode":4},{"attributes":{"NORMAL":44,"POSITION":16},"indices":72,"material":1,"mode":4},{"attributes":{"NORMAL":45,"POSITION":17},"indices":73,"material":1,"mode":4},{"attributes":{"NORMAL":46,"POSITION":18},"indices":74,"material":1,"mode":4},{"attributes":{"NORMAL":47,"POSITION":19},"indices":75,"material":1,"mode":4},{"attributes":{"NORMAL":48,"POSITION":20},"indices":76,"material":1,"mode":4},{"attributes":{"NORMAL":49,"POSITION":21},"indices":77,"material":1,"mode":4},{"attributes":{"NORMAL":50,"POSITION":22},"indices":78,"material":1,"mode":4},{"attributes":{"NORMAL":51,"POSITION":23},"indices":79,"material":1,"mode":4},{"attributes":{"NORMAL":52,"POSITION":24},"indices":80,"material":1,"mode":4},{"attributes":{"NORMAL":53,"POSITION":25},"indices":81,"material":1,"mode":4},{"attributes":{"NORMAL":54,"POSITION":26},"indices":82,"material":1,"mode":4},{"attributes":{"NORMAL":55,"POSITION":27},"indices":83,"material":1,"mode":4}]}],"nodes":[{"children":[1,2,3],"name":"Assem1"},{"mesh":0,"name":"Ferrite"},{"translation":[5.6920614055489e-19,1.0842021724855e-19,0.00015],"mesh":1,"name":"Pad"},{"rotation":[1.3877787807814494e-17,1.0,-9.40716709035965e-17,8.1358883491691e-17],"translation":[4.26904605416168e-19,-6.7762635780344e-20,-0.00015],"mesh":2,"name":"Pad001"}],"scene":0,"scenes":[{"nodes":[0]}]}