{"asset":{"version":"2.0","generator":"WEconnect cuboid reconstruction"},"scene":0,"scenes":[{"nodes":[0]}],"nodes":[{"name":"Assem1","children":[1,2,3]},{"name":"Ferrite","mesh":0},{"name":"Pad","mesh":1,"translation":[0,0,0.65]},{"name":"Pad001","mesh":2,"translation":[0,0,-0.65]}],"meshes":[{"name":"Ferrite","primitives":[{"attributes":{"POSITION":0,"NORMAL":1},"indices":2,"material":0}]},{"name":"Pad","primitives":[{"attributes":{"POSITION":3,"NORMAL":4},"indices":5,"material":1}]},{"name":"Pad001","primitives":[{"attributes":{"POSITION":6,"NORMAL":7},"indices":8,"material":1}]}],"materials":[{"name":"ferrite","pbrMetallicRoughness":{"baseColorFactor":[0.13,0.13,0.15,1],"metallicFactor":0.25,"roughnessFactor":0.55}},{"name":"terminal","pbrMetallicRoughness":{"baseColorFactor":[0.86,0.87,0.9,1],"metallicFactor":0.95,"roughnessFactor":0.32}}],"accessors":[{"bufferView":0,"componentType":5126,"count":24,"type":"VEC3","min":[-0.699999988079071,-0.699999988079071,-0.5899999737739563],"max":[0.699999988079071,0.699999988079071,0.5899999737739563]},{"bufferView":1,"componentType":5126,"count":24,"type":"VEC3"},{"bufferView":2,"componentType":5123,"count":36,"type":"SCALAR"},{"bufferView":3,"componentType":5126,"count":24,"type":"VEC3","min":[-0.6399999856948853,-0.6399999856948853,-0.05999999865889549],"max":[0.6399999856948853,0.6399999856948853,0.05999999865889549]},{"bufferView":4,"componentType":5126,"count":24,"type":"VEC3"},{"bufferView":5,"componentType":5123,"count":36,"type":"SCALAR"},{"bufferView":6,"componentType":5126,"count":24,"type":"VEC3","min":[-0.6399999856948853,-0.6399999856948853,-0.05999999865889549],"max":[0.6399999856948853,0.6399999856948853,0.05999999865889549]},{"bufferView":7,"componentType":5126,"count":24,"type":"VEC3"},{"bufferView":8,"componentType":5123,"count":36,"type":"SCALAR"}],"bufferViews":[{"buffer":0,"byteOffset":0,"byteLength":288,"target":34962},{"buffer":0,"byteOffset":288,"byteLength":288,"target":34962},{"buffer":0,"byteOffset":576,"byteLength":72,"target":34963},{"buffer":0,"byteOffset":648,"byteLength":288,"target":34962},{"buffer":0,"byteOffset":936,"byteLength":288,"target":34962},{"buffer":0,"byteOffset":1224,"byteLength":72,"target":34963},{"buffer":0,"byteOffset":1296,"byteLength":288,"target":34962},{"buffer":0,"byteOffset":1584,"byteLength":288,"target":34962},{"buffer":0,"byteOffset":1872,"byteLength":72,"target":34963}],"buffers":[{"byteLength":1944,"uri":"data:application/octet-stream;base64,"}]}