{
  "accessors": [
    {
      "bufferView": 0,
      "byteOffset": 0,
      "componentType": 5126,
      "count": 54,
      "max": [
        0.0019,
        0.00037722937215725876,
        0.00038
      ],
      "min": [
        -0.0019,
        -0.0003772293721572624,
        -0.00038
      ],
      "type": "VEC3"
    },
    {
      "bufferView": 0,
      "byteOffset": 648,
      "componentType": 5126,
      "count": 263,
      "max": [
        0.002,
        0.0004799999999999983,
        0.00048
      ],
      "min": [
        0.0019,
        -0.0004800000000000017,
        -0.00048
      ],
      "type": "VEC3"
    },
    {
      "bufferView": 0,
      "byteOffset": 3804,
      "componentType": 5126,
      "count": 92,
      "max": [
        0.0019,
        0.001249238533773868,
        0.00125
      ],
      "min": [
        -0.0019,
        -0.0012492385337738714,
        -0.0012469550628247804
      ],
      "type": "VEC3"
    },
    {
      "bufferView": 0,
      "byteOffset": 4908,
      "componentType": 5126,
      "count": 416,
      "max": [
        0.002,
        0.001249238533773868,
        0.00125
      ],
      "min": [
        0.0019,
        -0.0012492385337738714,
        -0.0012469550628247804
      ],
      "type": "VEC3"
    },
    {
      "bufferView": 0,
      "byteOffset": 9900,
      "componentType": 5126,
      "count": 263,
      "max": [
        -0.0019,
        0.0004799999999999983,
        0.00048
      ],
      "min": [
        -0.002,
        -0.0004800000000000017,
        -0.00048
      ],
      "type": "VEC3"
    },
    {
      "bufferView": 0,
      "byteOffset": 13056,
      "componentType": 5126,
      "count": 71,
      "max": [
        -0.002,
        0.0011492327756257735,
        0.00115
      ],
      "min": [
        -0.002,
        -0.001149232775625777,
        -0.0011469321262130845
      ],
      "type": "VEC3"
    },
    {
      "bufferView": 0,
      "byteOffset": 13908,
      "componentType": 5126,
      "count": 420,
      "max": [
        -0.0019,
        0.001249238533773868,
        0.00125
      ],
      "min": [
        -0.002,
        -0.0012492385337738714,
        -0.0012469550628247804
      ],
      "type": "VEC3"
    },
    {
      "bufferView": 0,
      "byteOffset": 18948,
      "componentType": 5126,
      "count": 71,
      "max": [
        0.002,
        0.0011492327756257735,
        0.00115
      ],
      "min": [
        0.002,
        -0.001149232775625777,
        -0.0011469321262130845
      ],
      "type": "VEC3"
    },
    {
      "bufferView": 1,
      "byteOffset": 0,
      "componentType": 5126,
      "count": 54,
      "type": "VEC3"
    },
    {
      "bufferView": 1,
      "byteOffset": 648,
      "componentType": 5126,
      "count": 263,
      "type": "VEC3"
    },
    {
      "bufferView": 1,
      "byteOffset": 3804,
      "componentType": 5126,
      "count": 92,
      "type": "VEC3"
    },
    {
      "bufferView": 1,
      "byteOffset": 4908,
      "componentType": 5126,
      "count": 416,
      "type": "VEC3"
    },
    {
      "bufferView": 1,
      "byteOffset": 9900,
      "componentType": 5126,
      "count": 263,
      "type": "VEC3"
    },
    {
      "bufferView": 1,
      "byteOffset": 13056,
      "componentType": 5126,
      "count": 71,
      "type": "VEC3"
    },
    {
      "bufferView": 1,
      "byteOffset": 13908,
      "componentType": 5126,
      "count": 420,
      "type": "VEC3"
    },
    {
      "bufferView": 1,
      "byteOffset": 18948,
      "componentType": 5126,
      "count": 71,
      "type": "VEC3"
    },
    {
      "bufferView": 2,
      "byteOffset": 0,
      "componentType": 5123,
      "count": 156,
      "type": "SCALAR"
    },
    {
      "bufferView": 2,
      "byteOffset": 312,
      "componentType": 5123,
      "count": 1368,
      "type": "SCALAR"
    },
    {
      "bufferView": 2,
      "byteOffset": 3048,
      "componentType": 5123,
      "count": 270,
      "type": "SCALAR"
    },
    {
      "bufferView": 2,
      "byteOffset": 3588,
      "componentType": 5123,
      "count": 2184,
      "type": "SCALAR"
    },
    {
      "bufferView": 2,
      "byteOffset": 7956,
      "componentType": 5123,
      "count": 1368,
      "type": "SCALAR"
    },
    {
      "bufferView": 2,
      "byteOffset": 10692,
      "componentType": 5123,
      "count": 213,
      "type": "SCALAR"
    },
    {
      "bufferView": 2,
      "byteOffset": 11120,
      "componentType": 5123,
      "count": 2208,
      "type": "SCALAR"
    },
    {
      "bufferView": 2,
      "byteOffset": 15536,
      "componentType": 5123,
      "count": 213,
      "type": "SCALAR"
    }
  ],
  "asset": {
    "generator": "Open CASCADE Technology 7.8 [dev.opencascade.org]",
    "version": "2.0"
  },
  "bufferViews": [
    {
      "buffer": 0,
      "byteLength": 19800,
      "byteOffset": 0,
      "byteStride": 12,
      "target": 34962
    },
    {
      "buffer": 0,
      "byteLength": 19800,
      "byteOffset": 19800,
      "byteStride": 12,
      "target": 34962
    },
    {
      "buffer": 0,
      "byteLength": 15964,
      "byteOffset": 39600,
      "target": 34963
    }
  ],
  "buffers": [
    {
      "byteLength": 55564,
      "uri": "WE-AFB LFS.bin"
    }
  ],
  "materials": [
    {
      "name": "mat_0",
      "pbrMetallicRoughness": {
        "baseColorFactor": [
          0.03310476616024971,
          0.03310476616024971,
          0.03310476616024971,
          1
        ]
      },
      "doubleSided": true
    }
  ],
  "meshes": [
    {
      "name": "1",
      "primitives": [
        {
          "attributes": {
            "NORMAL": 8,
            "POSITION": 0
          },
          "indices": 16,
          "material": 0,
          "mode": 4
        },
        {
          "attributes": {
            "NORMAL": 9,
            "POSITION": 1
          },
          "indices": 17,
          "material": 0,
          "mode": 4
        },
        {
          "attributes": {
            "NORMAL": 10,
            "POSITION": 2
          },
          "indices": 18,
          "material": 0,
          "mode": 4
        },
        {
          "attributes": {
            "NORMAL": 11,
            "POSITION": 3
          },
          "indices": 19,
          "material": 0,
          "mode": 4
        },
        {
          "attributes": {
            "NORMAL": 12,
            "POSITION": 4
          },
          "indices": 20,
          "material": 0,
          "mode": 4
        },
        {
          "attributes": {
            "NORMAL": 13,
            "POSITION": 5
          },
          "indices": 21,
          "material": 0,
          "mode": 4
        },
        {
          "attributes": {
            "NORMAL": 14,
            "POSITION": 6
          },
          "indices": 22,
          "material": 0,
          "mode": 4
        },
        {
          "attributes": {
            "NORMAL": 15,
            "POSITION": 7
          },
          "indices": 23,
          "material": 0,
          "mode": 4
        }
      ]
    }
  ],
  "nodes": [
    {
      "mesh": 0,
      "name": "1"
    }
  ],
  "scene": 0,
  "scenes": [
    {
      "nodes": [
        0
      ]
    }
  ]
}