{
  "accessors": [
    {
      "bufferView": 0,
      "byteOffset": 0,
      "componentType": 5126,
      "count": 4,
      "max": [
        -0.006500000000000001,
        0.00125,
        0.0075
      ],
      "min": [
        -0.0085,
        0.00125,
        -0.0075
      ],
      "type": "VEC3"
    },
    {
      "bufferView": 0,
      "byteOffset": 48,
      "componentType": 5126,
      "count": 4,
      "max": [
        -0.0085,
        0.00125,
        0.0075
      ],
      "min": [
        -0.0085,
        0,
        -0.0075
      ],
      "type": "VEC3"
    },
    {
      "bufferView": 0,
      "byteOffset": 96,
      "componentType": 5126,
      "count": 4,
      "max": [
        0.006500000000000001,
        0.00125,
        0.0075
      ],
      "min": [
        0.006500000000000001,
        0.0008500000000000001,
        -0.0075
      ],
      "type": "VEC3"
    },
    {
      "bufferView": 0,
      "byteOffset": 144,
      "componentType": 5126,
      "count": 8,
      "max": [
        0.0085,
        0.00125,
        -0.0075
      ],
      "min": [
        -0.0085,
        0,
        -0.0075
      ],
      "type": "VEC3"
    },
    {
      "bufferView": 0,
      "byteOffset": 240,
      "componentType": 5126,
      "count": 4,
      "max": [
        0.0085,
        0.00125,
        0.0075
      ],
      "min": [
        0.006500000000000001,
        0.00125,
        -0.0075
      ],
      "type": "VEC3"
    },
    {
      "bufferView": 0,
      "byteOffset": 288,
      "componentType": 5126,
      "count": 8,
      "max": [
        0.0085,
        0.00125,
        0.0075
      ],
      "min": [
        -0.0085,
        0,
        0.0075
      ],
      "type": "VEC3"
    },
    {
      "bufferView": 0,
      "byteOffset": 384,
      "componentType": 5126,
      "count": 4,
      "max": [
        0.0085,
        0,
        0.0075
      ],
      "min": [
        -0.0085,
        0,
        -0.0075
      ],
      "type": "VEC3"
    },
    {
      "bufferView": 0,
      "byteOffset": 432,
      "componentType": 5126,
      "count": 4,
      "max": [
        0.0085,
        0.00125,
        0.0075
      ],
      "min": [
        0.0085,
        0,
        -0.0075
      ],
      "type": "VEC3"
    },
    {
      "bufferView": 0,
      "byteOffset": 480,
      "componentType": 5126,
      "count": 4,
      "max": [
        -0.006500000000000001,
        0.00125,
        0.0075
      ],
      "min": [
        -0.006500000000000001,
        0.0008500000000000001,
        -0.0075
      ],
      "type": "VEC3"
    },
    {
      "bufferView": 0,
      "byteOffset": 528,
      "componentType": 5126,
      "count": 4,
      "max": [
        0.006500000000000001,
        0.0008500000000000001,
        0.0075
      ],
      "min": [
        -0.006500000000000001,
        0.0008500000000000001,
        -0.0075
      ],
      "type": "VEC3"
    },
    {
      "bufferView": 1,
      "byteOffset": 0,
      "componentType": 5126,
      "count": 4,
      "type": "VEC3"
    },
    {
      "bufferView": 1,
      "byteOffset": 48,
      "componentType": 5126,
      "count": 4,
      "type": "VEC3"
    },
    {
      "bufferView": 1,
      "byteOffset": 96,
      "componentType": 5126,
      "count": 4,
      "type": "VEC3"
    },
    {
      "bufferView": 1,
      "byteOffset": 144,
      "componentType": 5126,
      "count": 8,
      "type": "VEC3"
    },
    {
      "bufferView": 1,
      "byteOffset": 240,
      "componentType": 5126,
      "count": 4,
      "type": "VEC3"
    },
    {
      "bufferView": 1,
      "byteOffset": 288,
      "componentType": 5126,
      "count": 8,
      "type": "VEC3"
    },
    {
      "bufferView": 1,
      "byteOffset": 384,
      "componentType": 5126,
      "count": 4,
      "type": "VEC3"
    },
    {
      "bufferView": 1,
      "byteOffset": 432,
      "componentType": 5126,
      "count": 4,
      "type": "VEC3"
    },
    {
      "bufferView": 1,
      "byteOffset": 480,
      "componentType": 5126,
      "count": 4,
      "type": "VEC3"
    },
    {
      "bufferView": 1,
      "byteOffset": 528,
      "componentType": 5126,
      "count": 4,
      "type": "VEC3"
    },
    {
      "bufferView": 2,
      "byteOffset": 0,
      "componentType": 5123,
      "count": 6,
      "type": "SCALAR"
    },
    {
      "bufferView": 2,
      "byteOffset": 12,
      "componentType": 5123,
      "count": 6,
      "type": "SCALAR"
    },
    {
      "bufferView": 2,
      "byteOffset": 24,
      "componentType": 5123,
      "count": 6,
      "type": "SCALAR"
    },
    {
      "bufferView": 2,
      "byteOffset": 36,
      "componentType": 5123,
      "count": 18,
      "type": "SCALAR"
    },
    {
      "bufferView": 2,
      "byteOffset": 72,
      "componentType": 5123,
      "count": 6,
      "type": "SCALAR"
    },
    {
      "bufferView": 2,
      "byteOffset": 84,
      "componentType": 5123,
      "count": 18,
      "type": "SCALAR"
    },
    {
      "bufferView": 2,
      "byteOffset": 120,
      "componentType": 5123,
      "count": 6,
      "type": "SCALAR"
    },
    {
      "bufferView": 2,
      "byteOffset": 132,
      "componentType": 5123,
      "count": 6,
      "type": "SCALAR"
    },
    {
      "bufferView": 2,
      "byteOffset": 144,
      "componentType": 5123,
      "count": 6,
      "type": "SCALAR"
    },
    {
      "bufferView": 2,
      "byteOffset": 156,
      "componentType": 5123,
      "count": 6,
      "type": "SCALAR"
    }
  ],
  "asset": {
    "generator": "Open CASCADE Technology 7.8 [dev.opencascade.org]",
    "version": "2.0"
  },
  "bufferViews": [
    {
      "buffer": 0,
      "byteLength": 576,
      "byteOffset": 0,
      "byteStride": 12,
      "target": 34962
    },
    {
      "buffer": 0,
      "byteLength": 576,
      "byteOffset": 576,
      "byteStride": 12,
      "target": 34962
    },
    {
      "buffer": 0,
      "byteLength": 168,
      "byteOffset": 1152,
      "target": 34963
    }
  ],
  "buffers": [
    {
      "byteLength": 1320,
      "uri": "WE-FLAT.bin"
    }
  ],
  "materials": [
    {
      "name": "mat_0",
      "pbrMetallicRoughness": {
        "baseColorFactor": [
          0.03310476616024971,
          0.03310476616024971,
          0.03310476616024971,
          1
        ]
      },
      "doubleSided": true
    }
  ],
  "meshes": [
    {
      "name": "Ferrit",
      "primitives": [
        {
          "attributes": {
            "NORMAL": 10,
            "POSITION": 0
          },
          "indices": 20,
          "material": 0,
          "mode": 4
        },
        {
          "attributes": {
            "NORMAL": 11,
            "POSITION": 1
          },
          "indices": 21,
          "material": 0,
          "mode": 4
        },
        {
          "attributes": {
            "NORMAL": 12,
            "POSITION": 2
          },
          "indices": 22,
          "material": 0,
          "mode": 4
        },
        {
          "attributes": {
            "NORMAL": 13,
            "POSITION": 3
          },
          "indices": 23,
          "material": 0,
          "mode": 4
        },
        {
          "attributes": {
            "NORMAL": 14,
            "POSITION": 4
          },
          "indices": 24,
          "material": 0,
          "mode": 4
        },
        {
          "attributes": {
            "NORMAL": 15,
            "POSITION": 5
          },
          "indices": 25,
          "material": 0,
          "mode": 4
        },
        {
          "attributes": {
            "NORMAL": 16,
            "POSITION": 6
          },
          "indices": 26,
          "material": 0,
          "mode": 4
        },
        {
          "attributes": {
            "NORMAL": 17,
            "POSITION": 7
          },
          "indices": 27,
          "material": 0,
          "mode": 4
        },
        {
          "attributes": {
            "NORMAL": 18,
            "POSITION": 8
          },
          "indices": 28,
          "material": 0,
          "mode": 4
        },
        {
          "attributes": {
            "NORMAL": 19,
            "POSITION": 9
          },
          "indices": 29,
          "material": 0,
          "mode": 4
        }
      ]
    },
    {
      "name": "Ferrit",
      "primitives": [
        {
          "attributes": {
            "NORMAL": 10,
            "POSITION": 0
          },
          "indices": 20,
          "material": 0,
          "mode": 4
        },
        {
          "attributes": {
            "NORMAL": 11,
            "POSITION": 1
          },
          "indices": 21,
          "material": 0,
          "mode": 4
        },
        {
          "attributes": {
            "NORMAL": 12,
            "POSITION": 2
          },
          "indices": 22,
          "material": 0,
          "mode": 4
        },
        {
          "attributes": {
            "NORMAL": 13,
            "POSITION": 3
          },
          "indices": 23,
          "material": 0,
          "mode": 4
        },
        {
          "attributes": {
            "NORMAL": 14,
            "POSITION": 4
          },
          "indices": 24,
          "material": 0,
          "mode": 4
        },
        {
          "attributes": {
            "NORMAL": 15,
            "POSITION": 5
          },
          "indices": 25,
          "material": 0,
          "mode": 4
        },
        {
          "attributes": {
            "NORMAL": 16,
            "POSITION": 6
          },
          "indices": 26,
          "material": 0,
          "mode": 4
        },
        {
          "attributes": {
            "NORMAL": 17,
            "POSITION": 7
          },
          "indices": 27,
          "material": 0,
          "mode": 4
        },
        {
          "attributes": {
            "NORMAL": 18,
            "POSITION": 8
          },
          "indices": 28,
          "material": 0,
          "mode": 4
        },
        {
          "attributes": {
            "NORMAL": 19,
            "POSITION": 9
          },
          "indices": 29,
          "material": 0,
          "mode": 4
        }
      ]
    }
  ],
  "nodes": [
    {
      "children": [
        1,
        2
      ],
      "name": "Assem1"
    },
    {
      "mesh": 0,
      "name": "Ferrit"
    },
    {
      "rotation": [
        -5.5511151231258e-17,
        -2.7201867390815802e-17,
        1,
        -7.61271834454915e-17
      ],
      "translation": [
        1.48535697630514e-17,
        0.0025,
        -1.0842021724855e-19
      ],
      "mesh": 1,
      "name": "Ferrit001"
    }
  ],
  "scene": 0,
  "scenes": [
    {
      "nodes": [
        0
      ]
    }
  ]
}