{
  "accessors": [
    {
      "bufferView": 0,
      "byteOffset": 0,
      "componentType": 5126,
      "count": 4,
      "max": [
        -0.1485,
        0.00010000000000000009,
        0.105
      ],
      "min": [
        -0.1485,
        0,
        -0.105
      ],
      "type": "VEC3"
    },
    {
      "bufferView": 0,
      "byteOffset": 48,
      "componentType": 5126,
      "count": 4,
      "max": [
        0.1485,
        0.00010000000000000009,
        0.105
      ],
      "min": [
        -0.1485,
        0,
        0.105
      ],
      "type": "VEC3"
    },
    {
      "bufferView": 0,
      "byteOffset": 96,
      "componentType": 5126,
      "count": 4,
      "max": [
        0.1485,
        0.00010000000000000009,
        0.105
      ],
      "min": [
        0.1485,
        0,
        -0.105
      ],
      "type": "VEC3"
    },
    {
      "bufferView": 0,
      "byteOffset": 144,
      "componentType": 5126,
      "count": 4,
      "max": [
        0.1485,
        0.00010000000000000009,
        -0.105
      ],
      "min": [
        -0.1485,
        0,
        -0.105
      ],
      "type": "VEC3"
    },
    {
      "bufferView": 0,
      "byteOffset": 192,
      "componentType": 5126,
      "count": 4,
      "max": [
        0.1485,
        0.00010000000000000009,
        0.105
      ],
      "min": [
        -0.1485,
        0.00010000000000000009,
        -0.105
      ],
      "type": "VEC3"
    },
    {
      "bufferView": 0,
      "byteOffset": 240,
      "componentType": 5126,
      "count": 4,
      "max": [
        0.1485,
        0,
        0.105
      ],
      "min": [
        -0.1485,
        0,
        -0.105
      ],
      "type": "VEC3"
    },
    {
      "bufferView": 0,
      "byteOffset": 288,
      "componentType": 5126,
      "count": 4,
      "max": [
        -0.1485,
        0.00007999999999999997,
        0.105
      ],
      "min": [
        -0.1485,
        0,
        -0.105
      ],
      "type": "VEC3"
    },
    {
      "bufferView": 0,
      "byteOffset": 336,
      "componentType": 5126,
      "count": 4,
      "max": [
        0.1485,
        0.00007999999999999997,
        0.105
      ],
      "min": [
        -0.1485,
        0,
        0.105
      ],
      "type": "VEC3"
    },
    {
      "bufferView": 0,
      "byteOffset": 384,
      "componentType": 5126,
      "count": 4,
      "max": [
        0.1485,
        0.00007999999999999997,
        0.105
      ],
      "min": [
        0.1485,
        0,
        -0.105
      ],
      "type": "VEC3"
    },
    {
      "bufferView": 0,
      "byteOffset": 432,
      "componentType": 5126,
      "count": 4,
      "max": [
        0.1485,
        0.00007999999999999997,
        -0.105
      ],
      "min": [
        -0.1485,
        0,
        -0.105
      ],
      "type": "VEC3"
    },
    {
      "bufferView": 0,
      "byteOffset": 480,
      "componentType": 5126,
      "count": 4,
      "max": [
        0.1485,
        0.00007999999999999997,
        0.105
      ],
      "min": [
        -0.1485,
        0.00007999999999999997,
        -0.105
      ],
      "type": "VEC3"
    },
    {
      "bufferView": 0,
      "byteOffset": 528,
      "componentType": 5126,
      "count": 4,
      "max": [
        0.1485,
        0,
        0.105
      ],
      "min": [
        -0.1485,
        0,
        -0.105
      ],
      "type": "VEC3"
    },
    {
      "bufferView": 0,
      "byteOffset": 576,
      "componentType": 5126,
      "count": 4,
      "max": [
        -0.1485,
        0.0005,
        0.105
      ],
      "min": [
        -0.1485,
        0,
        -0.105
      ],
      "type": "VEC3"
    },
    {
      "bufferView": 0,
      "byteOffset": 624,
      "componentType": 5126,
      "count": 4,
      "max": [
        0.1485,
        0.0005,
        0.105
      ],
      "min": [
        -0.1485,
        0,
        0.105
      ],
      "type": "VEC3"
    },
    {
      "bufferView": 0,
      "byteOffset": 672,
      "componentType": 5126,
      "count": 4,
      "max": [
        0.1485,
        0.0005,
        0.105
      ],
      "min": [
        0.1485,
        0,
        -0.105
      ],
      "type": "VEC3"
    },
    {
      "bufferView": 0,
      "byteOffset": 720,
      "componentType": 5126,
      "count": 4,
      "max": [
        0.1485,
        0.0005,
        -0.105
      ],
      "min": [
        -0.1485,
        0,
        -0.105
      ],
      "type": "VEC3"
    },
    {
      "bufferView": 0,
      "byteOffset": 768,
      "componentType": 5126,
      "count": 4,
      "max": [
        0.1485,
        0.0005,
        0.105
      ],
      "min": [
        -0.1485,
        0.0005,
        -0.105
      ],
      "type": "VEC3"
    },
    {
      "bufferView": 0,
      "byteOffset": 816,
      "componentType": 5126,
      "count": 4,
      "max": [
        0.1485,
        0,
        0.105
      ],
      "min": [
        -0.1485,
        0,
        -0.105
      ],
      "type": "VEC3"
    },
    {
      "bufferView": 1,
      "byteOffset": 0,
      "componentType": 5126,
      "count": 4,
      "type": "VEC3"
    },
    {
      "bufferView": 1,
      "byteOffset": 48,
      "componentType": 5126,
      "count": 4,
      "type": "VEC3"
    },
    {
      "bufferView": 1,
      "byteOffset": 96,
      "componentType": 5126,
      "count": 4,
      "type": "VEC3"
    },
    {
      "bufferView": 1,
      "byteOffset": 144,
      "componentType": 5126,
      "count": 4,
      "type": "VEC3"
    },
    {
      "bufferView": 1,
      "byteOffset": 192,
      "componentType": 5126,
      "count": 4,
      "type": "VEC3"
    },
    {
      "bufferView": 1,
      "byteOffset": 240,
      "componentType": 5126,
      "count": 4,
      "type": "VEC3"
    },
    {
      "bufferView": 1,
      "byteOffset": 288,
      "componentType": 5126,
      "count": 4,
      "type": "VEC3"
    },
    {
      "bufferView": 1,
      "byteOffset": 336,
      "componentType": 5126,
      "count": 4,
      "type": "VEC3"
    },
    {
      "bufferView": 1,
      "byteOffset": 384,
      "componentType": 5126,
      "count": 4,
      "type": "VEC3"
    },
    {
      "bufferView": 1,
      "byteOffset": 432,
      "componentType": 5126,
      "count": 4,
      "type": "VEC3"
    },
    {
      "bufferView": 1,
      "byteOffset": 480,
      "componentType": 5126,
      "count": 4,
      "type": "VEC3"
    },
    {
      "bufferView": 1,
      "byteOffset": 528,
      "componentType": 5126,
      "count": 4,
      "type": "VEC3"
    },
    {
      "bufferView": 1,
      "byteOffset": 576,
      "componentType": 5126,
      "count": 4,
      "type": "VEC3"
    },
    {
      "bufferView": 1,
      "byteOffset": 624,
      "componentType": 5126,
      "count": 4,
      "type": "VEC3"
    },
    {
      "bufferView": 1,
      "byteOffset": 672,
      "componentType": 5126,
      "count": 4,
      "type": "VEC3"
    },
    {
      "bufferView": 1,
      "byteOffset": 720,
      "componentType": 5126,
      "count": 4,
      "type": "VEC3"
    },
    {
      "bufferView": 1,
      "byteOffset": 768,
      "componentType": 5126,
      "count": 4,
      "type": "VEC3"
    },
    {
      "bufferView": 1,
      "byteOffset": 816,
      "componentType": 5126,
      "count": 4,
      "type": "VEC3"
    },
    {
      "bufferView": 2,
      "byteOffset": 0,
      "componentType": 5123,
      "count": 6,
      "type": "SCALAR"
    },
    {
      "bufferView": 2,
      "byteOffset": 12,
      "componentType": 5123,
      "count": 6,
      "type": "SCALAR"
    },
    {
      "bufferView": 2,
      "byteOffset": 24,
      "componentType": 5123,
      "count": 6,
      "type": "SCALAR"
    },
    {
      "bufferView": 2,
      "byteOffset": 36,
      "componentType": 5123,
      "count": 6,
      "type": "SCALAR"
    },
    {
      "bufferView": 2,
      "byteOffset": 48,
      "componentType": 5123,
      "count": 6,
      "type": "SCALAR"
    },
    {
      "bufferView": 2,
      "byteOffset": 60,
      "componentType": 5123,
      "count": 6,
      "type": "SCALAR"
    },
    {
      "bufferView": 2,
      "byteOffset": 72,
      "componentType": 5123,
      "count": 6,
      "type": "SCALAR"
    },
    {
      "bufferView": 2,
      "byteOffset": 84,
      "componentType": 5123,
      "count": 6,
      "type": "SCALAR"
    },
    {
      "bufferView": 2,
      "byteOffset": 96,
      "componentType": 5123,
      "count": 6,
      "type": "SCALAR"
    },
    {
      "bufferView": 2,
      "byteOffset": 108,
      "componentType": 5123,
      "count": 6,
      "type": "SCALAR"
    },
    {
      "bufferView": 2,
      "byteOffset": 120,
      "componentType": 5123,
      "count": 6,
      "type": "SCALAR"
    },
    {
      "bufferView": 2,
      "byteOffset": 132,
      "componentType": 5123,
      "count": 6,
      "type": "SCALAR"
    },
    {
      "bufferView": 2,
      "byteOffset": 144,
      "componentType": 5123,
      "count": 6,
      "type": "SCALAR"
    },
    {
      "bufferView": 2,
      "byteOffset": 156,
      "componentType": 5123,
      "count": 6,
      "type": "SCALAR"
    },
    {
      "bufferView": 2,
      "byteOffset": 168,
      "componentType": 5123,
      "count": 6,
      "type": "SCALAR"
    },
    {
      "bufferView": 2,
      "byteOffset": 180,
      "componentType": 5123,
      "count": 6,
      "type": "SCALAR"
    },
    {
      "bufferView": 2,
      "byteOffset": 192,
      "componentType": 5123,
      "count": 6,
      "type": "SCALAR"
    },
    {
      "bufferView": 2,
      "byteOffset": 204,
      "componentType": 5123,
      "count": 6,
      "type": "SCALAR"
    }
  ],
  "asset": {
    "generator": "Open CASCADE Technology 7.8 [dev.opencascade.org]",
    "version": "2.0"
  },
  "bufferViews": [
    {
      "buffer": 0,
      "byteLength": 864,
      "byteOffset": 0,
      "byteStride": 12,
      "target": 34962
    },
    {
      "buffer": 0,
      "byteLength": 864,
      "byteOffset": 864,
      "byteStride": 12,
      "target": 34962
    },
    {
      "buffer": 0,
      "byteLength": 216,
      "byteOffset": 1728,
      "target": 34963
    }
  ],
  "buffers": [
    {
      "byteLength": 1944,
      "uri": "WE-FAS Flexible Absorber Sheet.bin"
    }
  ],
  "materials": [
    {
      "name": "mat_0",
      "pbrMetallicRoughness": {
        "baseColorFactor": [
          1,
          1,
          1,
          0.30000001192092896
        ],
        "metallicFactor": 0
      },
      "doubleSided": true,
      "alphaMode": "BLEND"
    },
    {
      "name": "mat_1",
      "pbrMetallicRoughness": {
        "baseColorFactor": [
          0,
          0,
          0.6038273572921753,
          1
        ]
      },
      "doubleSided": true
    },
    {
      "name": "mat_2",
      "pbrMetallicRoughness": {
        "baseColorFactor": [
          0.03310476616024971,
          0.03310476616024971,
          0.03310476616024971,
          1
        ]
      },
      "doubleSided": true
    }
  ],
  "meshes": [
    {
      "name": "Adhesive tape",
      "primitives": [
        {
          "attributes": {
            "NORMAL": 18,
            "POSITION": 0
          },
          "indices": 36,
          "material": 0,
          "mode": 4
        },
        {
          "attributes": {
            "NORMAL": 19,
            "POSITION": 1
          },
          "indices": 37,
          "material": 0,
          "mode": 4
        },
        {
          "attributes": {
            "NORMAL": 20,
            "POSITION": 2
          },
          "indices": 38,
          "material": 0,
          "mode": 4
        },
        {
          "attributes": {
            "NORMAL": 21,
            "POSITION": 3
          },
          "indices": 39,
          "material": 0,
          "mode": 4
        },
        {
          "attributes": {
            "NORMAL": 22,
            "POSITION": 4
          },
          "indices": 40,
          "material": 0,
          "mode": 4
        },
        {
          "attributes": {
            "NORMAL": 23,
            "POSITION": 5
          },
          "indices": 41,
          "material": 0,
          "mode": 4
        }
      ]
    },
    {
      "name": "PET film",
      "primitives": [
        {
          "attributes": {
            "NORMAL": 24,
            "POSITION": 6
          },
          "indices": 42,
          "material": 1,
          "mode": 4
        },
        {
          "attributes": {
            "NORMAL": 25,
            "POSITION": 7
          },
          "indices": 43,
          "material": 1,
          "mode": 4
        },
        {
          "attributes": {
            "NORMAL": 26,
            "POSITION": 8
          },
          "indices": 44,
          "material": 1,
          "mode": 4
        },
        {
          "attributes": {
            "NORMAL": 27,
            "POSITION": 9
          },
          "indices": 45,
          "material": 1,
          "mode": 4
        },
        {
          "attributes": {
            "NORMAL": 28,
            "POSITION": 10
          },
          "indices": 46,
          "material": 1,
          "mode": 4
        },
        {
          "attributes": {
            "NORMAL": 29,
            "POSITION": 11
          },
          "indices": 47,
          "material": 1,
          "mode": 4
        }
      ]
    },
    {
      "name": "WE-FAS",
      "primitives": [
        {
          "attributes": {
            "NORMAL": 30,
            "POSITION": 12
          },
          "indices": 48,
          "material": 2,
          "mode": 4
        },
        {
          "attributes": {
            "NORMAL": 31,
            "POSITION": 13
          },
          "indices": 49,
          "material": 2,
          "mode": 4
        },
        {
          "attributes": {
            "NORMAL": 32,
            "POSITION": 14
          },
          "indices": 50,
          "material": 2,
          "mode": 4
        },
        {
          "attributes": {
            "NORMAL": 33,
            "POSITION": 15
          },
          "indices": 51,
          "material": 2,
          "mode": 4
        },
        {
          "attributes": {
            "NORMAL": 34,
            "POSITION": 16
          },
          "indices": 52,
          "material": 2,
          "mode": 4
        },
        {
          "attributes": {
            "NORMAL": 35,
            "POSITION": 17
          },
          "indices": 53,
          "material": 2,
          "mode": 4
        }
      ]
    }
  ],
  "nodes": [
    {
      "children": [
        1,
        2,
        3
      ],
      "name": "345005"
    },
    {
      "translation": [
        0,
        -0.00141889913129147,
        0
      ],
      "mesh": 0,
      "name": "Adhesive tape"
    },
    {
      "translation": [
        -9.72439550817499e-18,
        -0.000818899131291521,
        -6.07153216591882e-18
      ],
      "mesh": 1,
      "name": "PET film"
    },
    {
      "rotation": [
        0,
        -5.6378512969246e-16,
        0,
        1
      ],
      "translation": [
        -3.62913077288449e-16,
        -0.0013188991312913401,
        4.52767837377579e-16
      ],
      "mesh": 2,
      "name": "WE-FAS"
    }
  ],
  "scene": 0,
  "scenes": [
    {
      "nodes": [
        0
      ]
    }
  ]
}