{
  "accessors": [
    {
      "bufferView": 0,
      "byteOffset": 0,
      "componentType": 5126,
      "count": 72,
      "max": [
        0.0016483385597931693,
        0.00165,
        0.00195
      ],
      "min": [
        -0.0016483385597931691,
        -0.0016433575850921445,
        -0.00195
      ],
      "type": "VEC3"
    },
    {
      "bufferView": 0,
      "byteOffset": 864,
      "componentType": 5126,
      "count": 394,
      "max": [
        0.0018483330874786608,
        0.00185,
        0.00215
      ],
      "min": [
        -0.0018483330874786608,
        -0.001843335353803674,
        0.00195
      ],
      "type": "VEC3"
    },
    {
      "bufferView": 0,
      "byteOffset": 5592,
      "componentType": 5126,
      "count": 106,
      "max": [
        0.00365,
        0.00365,
        0.00195
      ],
      "min": [
        -0.00365,
        -0.00365,
        -0.00195
      ],
      "type": "VEC3"
    },
    {
      "bufferView": 0,
      "byteOffset": 6864,
      "componentType": 5126,
      "count": 566,
      "max": [
        0.00365,
        0.00365,
        0.00215
      ],
      "min": [
        -0.00365,
        -0.00365,
        0.00195
      ],
      "type": "VEC3"
    },
    {
      "bufferView": 0,
      "byteOffset": 13656,
      "componentType": 5126,
      "count": 397,
      "max": [
        0.0018483330874786608,
        0.00185,
        -0.00195
      ],
      "min": [
        -0.0018483330874786608,
        -0.001843335353803674,
        -0.00215
      ],
      "type": "VEC3"
    },
    {
      "bufferView": 0,
      "byteOffset": 18420,
      "componentType": 5126,
      "count": 88,
      "max": [
        0.0034483637330111126,
        0.0034500000000000004,
        -0.00215
      ],
      "min": [
        -0.0034483637330111126,
        -0.003443456484142803,
        -0.00215
      ],
      "type": "VEC3"
    },
    {
      "bufferView": 0,
      "byteOffset": 19476,
      "componentType": 5126,
      "count": 567,
      "max": [
        0.00365,
        0.00365,
        -0.00195
      ],
      "min": [
        -0.00365,
        -0.00365,
        -0.00215
      ],
      "type": "VEC3"
    },
    {
      "bufferView": 0,
      "byteOffset": 26280,
      "componentType": 5126,
      "count": 88,
      "max": [
        0.0034483637330111126,
        0.0034500000000000004,
        0.00215
      ],
      "min": [
        -0.0034483637330111126,
        -0.003443456484142803,
        0.00215
      ],
      "type": "VEC3"
    },
    {
      "bufferView": 1,
      "byteOffset": 0,
      "componentType": 5126,
      "count": 72,
      "type": "VEC3"
    },
    {
      "bufferView": 1,
      "byteOffset": 864,
      "componentType": 5126,
      "count": 394,
      "type": "VEC3"
    },
    {
      "bufferView": 1,
      "byteOffset": 5592,
      "componentType": 5126,
      "count": 106,
      "type": "VEC3"
    },
    {
      "bufferView": 1,
      "byteOffset": 6864,
      "componentType": 5126,
      "count": 566,
      "type": "VEC3"
    },
    {
      "bufferView": 1,
      "byteOffset": 13656,
      "componentType": 5126,
      "count": 397,
      "type": "VEC3"
    },
    {
      "bufferView": 1,
      "byteOffset": 18420,
      "componentType": 5126,
      "count": 88,
      "type": "VEC3"
    },
    {
      "bufferView": 1,
      "byteOffset": 19476,
      "componentType": 5126,
      "count": 567,
      "type": "VEC3"
    },
    {
      "bufferView": 1,
      "byteOffset": 26280,
      "componentType": 5126,
      "count": 88,
      "type": "VEC3"
    },
    {
      "bufferView": 2,
      "byteOffset": 0,
      "componentType": 5123,
      "count": 210,
      "type": "SCALAR"
    },
    {
      "bufferView": 2,
      "byteOffset": 420,
      "componentType": 5123,
      "count": 2100,
      "type": "SCALAR"
    },
    {
      "bufferView": 2,
      "byteOffset": 4620,
      "componentType": 5123,
      "count": 312,
      "type": "SCALAR"
    },
    {
      "bufferView": 2,
      "byteOffset": 5244,
      "componentType": 5123,
      "count": 3039,
      "type": "SCALAR"
    },
    {
      "bufferView": 2,
      "byteOffset": 11324,
      "componentType": 5123,
      "count": 2118,
      "type": "SCALAR"
    },
    {
      "bufferView": 2,
      "byteOffset": 15560,
      "componentType": 5123,
      "count": 264,
      "type": "SCALAR"
    },
    {
      "bufferView": 2,
      "byteOffset": 16088,
      "componentType": 5123,
      "count": 3045,
      "type": "SCALAR"
    },
    {
      "bufferView": 2,
      "byteOffset": 22180,
      "componentType": 5123,
      "count": 264,
      "type": "SCALAR"
    }
  ],
  "asset": {
    "generator": "Open CASCADE Technology 7.8 [dev.opencascade.org]",
    "version": "2.0"
  },
  "bufferViews": [
    {
      "buffer": 0,
      "byteLength": 27336,
      "byteOffset": 0,
      "byteStride": 12,
      "target": 34962
    },
    {
      "buffer": 0,
      "byteLength": 27336,
      "byteOffset": 27336,
      "byteStride": 12,
      "target": 34962
    },
    {
      "buffer": 0,
      "byteLength": 22708,
      "byteOffset": 54672,
      "target": 34963
    }
  ],
  "buffers": [
    {
      "byteLength": 77380,
      "uri": "WE-TOF.bin"
    }
  ],
  "materials": [
    {
      "name": "mat_0",
      "pbrMetallicRoughness": {
        "baseColorFactor": [
          0.03310476616024971,
          0.03310476616024971,
          0.03310476616024971,
          1
        ]
      },
      "doubleSided": true
    }
  ],
  "meshes": [
    {
      "name": "1",
      "primitives": [
        {
          "attributes": {
            "NORMAL": 8,
            "POSITION": 0
          },
          "indices": 16,
          "material": 0,
          "mode": 4
        },
        {
          "attributes": {
            "NORMAL": 9,
            "POSITION": 1
          },
          "indices": 17,
          "material": 0,
          "mode": 4
        },
        {
          "attributes": {
            "NORMAL": 10,
            "POSITION": 2
          },
          "indices": 18,
          "material": 0,
          "mode": 4
        },
        {
          "attributes": {
            "NORMAL": 11,
            "POSITION": 3
          },
          "indices": 19,
          "material": 0,
          "mode": 4
        },
        {
          "attributes": {
            "NORMAL": 12,
            "POSITION": 4
          },
          "indices": 20,
          "material": 0,
          "mode": 4
        },
        {
          "attributes": {
            "NORMAL": 13,
            "POSITION": 5
          },
          "indices": 21,
          "material": 0,
          "mode": 4
        },
        {
          "attributes": {
            "NORMAL": 14,
            "POSITION": 6
          },
          "indices": 22,
          "material": 0,
          "mode": 4
        },
        {
          "attributes": {
            "NORMAL": 15,
            "POSITION": 7
          },
          "indices": 23,
          "material": 0,
          "mode": 4
        }
      ]
    }
  ],
  "nodes": [
    {
      "mesh": 0,
      "name": "1"
    }
  ],
  "scene": 0,
  "scenes": [
    {
      "nodes": [
        0
      ]
    }
  ]
}