{"accessors":[{"bufferView":0,"byteOffset":0,"componentType":5126,"count":26,"max":[0.009000000000000001,0.0014856140856009735,-0.00098743686707646],"min":[0.009000000000000001,0.0009892596485519465,-0.00148743686707646],"type":"VEC3"},{"bufferView":0,"byteOffset":312,"componentType":5126,"count":54,"max":[0.009000000000000001,0.0014856140856009735,-0.00098743686707646],"min":[-0.005200000000000001,0.0009892596485519465,-0.00148743686707646],"type":"VEC3"},{"bufferView":0,"byteOffset":960,"componentType":5126,"count":216,"max":[-0.005200000000000001,0.0014856140856009735,-0.000437436867076458],"min":[-0.00625,0.0009892596485519465,-0.00148743686707646],"type":"VEC3"},{"bufferView":0,"byteOffset":3552,"componentType":5126,"count":26,"max":[0.009000000000000001,0.0014856140856009735,0.00148743686707646],"min":[0.009000000000000001,0.0009892596485519465,0.00098743686707646],"type":"VEC3"},{"bufferView":0,"byteOffset":3864,"componentType":5126,"count":54,"max":[-0.00575,0.0014856140856009735,0.00043743686707645803],"min":[-0.00625,0.0009892596485519465,-0.0004374368670764581],"type":"VEC3"},{"bufferView":0,"byteOffset":4512,"componentType":5126,"count":216,"max":[-0.005200000000000001,0.0014856140856009735,0.00148743686707646],"min":[-0.00625,0.0009892596485519465,0.00043743686707645803],"type":"VEC3"},{"bufferView":0,"byteOffset":7104,"componentType":5126,"count":54,"max":[0.009000000000000001,0.0014856140856009735,0.00148743686707646],"min":[-0.005200000000000001,0.0009892596485519465,0.00098743686707646],"type":"VEC3"},{"bufferView":0,"byteOffset":7752,"componentType":5126,"count":26,"max":[0.009000000000000001,-0.0009892596485519465,0.00148743686707646],"min":[0.009000000000000001,-0.0014856140856009735,0.00098743686707646],"type":"VEC3"},{"bufferView":0,"byteOffset":8064,"componentType":5126,"count":54,"max":[0.009000000000000001,-0.0009892596485519465,0.00148743686707646],"min":[-0.005200000000000001,-0.0014856140856009735,0.00098743686707646],"type":"VEC3"},{"bufferView":0,"byteOffset":8712,"componentType":5126,"count":216,"max":[-0.005200000000000001,-0.0009892596485519465,0.00148743686707646],"min":[-0.00625,-0.0014856140856009735,0.00043743686707645803],"type":"VEC3"},{"bufferView":0,"byteOffset":11304,"componentType":5126,"count":26,"max":[0.009000000000000001,-0.0009892596485519465,-0.00098743686707646],"min":[0.009000000000000001,-0.0014856140856009735,-0.00148743686707646],"type":"VEC3"},{"bufferView":0,"byteOffset":11616,"componentType":5126,"count":54,"max":[-0.00575,-0.0009892596485519465,0.00043743686707645803],"min":[-0.00625,-0.0014856140856009735,-0.00043743686707645803],"type":"VEC3"},{"bufferView":0,"byteOffset":12264,"componentType":5126,"count":216,"max":[-0.005200000000000001,-0.0009892596485519465,-0.00043743686707645803],"min":[-0.00625,-0.0014856140856009735,-0.00148743686707646],"type":"VEC3"},{"bufferView":0,"byteOffset":14856,"componentType":5126,"count":54,"max":[0.009000000000000001,-0.0009892596485519465,-0.00098743686707646],"min":[-0.005200000000000001,-0.0014856140856009735,-0.00148743686707646],"type":"VEC3"},{"bufferView":0,"byteOffset":15504,"componentType":5126,"count":90,"max":[0.005,0.003,0.002998172481057287],"min":[0.0046500000000000005,-0.0029926921507794748,-0.0029981724810572872],"type":"VEC3"},{"bufferView":0,"byteOffset":16584,"componentType":5126,"count":54,"max":[0.005,0.0015848849730107789,0.0015874368670764601],"min":[-0.005,0.000889988761142141,0.00088743686707646],"type":"VEC3"},{"bufferView":0,"byteOffset":17232,"componentType":5126,"count":91,"max":[-0.0046500000000000005,0.003,0.003],"min":[-0.005,-0.002996798924407119,-0.002996798924407117],"type":"VEC3"},{"bufferView":0,"byteOffset":18324,"componentType":5126,"count":54,"max":[0.005,-0.0008899887611421412,0.0015874368670764601],"min":[-0.005,-0.0015848849730107789,0.00088743686707646],"type":"VEC3"},{"bufferView":0,"byteOffset":18972,"componentType":5126,"count":54,"max":[0.005,-0.0008899887611421412,-0.00088743686707646],"min":[-0.005,-0.0015848849730107789,-0.00158743686707646],"type":"VEC3"},{"bufferView":0,"byteOffset":19620,"componentType":5126,"count":54,"max":[0.005,0.0015848849730107789,-0.000887436867076458],"min":[-0.005,0.000889988761142141,-0.00158743686707646],"type":"VEC3"},{"bufferView":0,"byteOffset":20268,"componentType":5126,"count":54,"max":[0.005,-0.0014025518940656812,0.00035],"min":[-0.005,-0.002097448105934319,-0.0003500000000000002],"type":"VEC3"},{"bufferView":0,"byteOffset":20916,"componentType":5126,"count":54,"max":[0.005,0.002097448105934319,0.00035],"min":[-0.005,0.001402551894065681,-0.00035],"type":"VEC3"},{"bufferView":0,"byteOffset":21564,"componentType":5126,"count":93,"max":[0.0046500000000000005,0.003,0.003],"min":[-0.0046500000000000005,-0.002996798924407119,-0.0029981724810572872],"type":"VEC3"},{"bufferView":0,"byteOffset":22680,"componentType":5126,"count":199,"max":[0.005,0.0026499999999999983,0.00265],"min":[0.005,-0.0026468079589437084,-0.0026468079589437067],"type":"VEC3"},{"bufferView":0,"byteOffset":25068,"componentType":5126,"count":199,"max":[-0.005,0.0026482320481811326,0.00265],"min":[-0.005,-0.0026482320481811357,-0.002642930551708412],"type":"VEC3"},{"bufferView":1,"byteOffset":0,"componentType":5126,"count":26,"type":"VEC3"},{"bufferView":1,"byteOffset":312,"componentType":5126,"count":54,"type":"VEC3"},{"bufferView":1,"byteOffset":960,"componentType":5126,"count":216,"type":"VEC3"},{"bufferView":1,"byteOffset":3552,"componentType":5126,"count":26,"type":"VEC3"},{"bufferView":1,"byteOffset":3864,"componentType":5126,"count":54,"type":"VEC3"},{"bufferView":1,"byteOffset":4512,"componentType":5126,"count":216,"type":"VEC3"},{"bufferView":1,"byteOffset":7104,"componentType":5126,"count":54,"type":"VEC3"},{"bufferView":1,"byteOffset":7752,"componentType":5126,"count":26,"type":"VEC3"},{"bufferView":1,"byteOffset":8064,"componentType":5126,"count":54,"type":"VEC3"},{"bufferView":1,"byteOffset":8712,"componentType":5126,"count":216,"type":"VEC3"},{"bufferView":1,"byteOffset":11304,"componentType":5126,"count":26,"type":"VEC3"},{"bufferView":1,"byteOffset":11616,"componentType":5126,"count":54,"type":"VEC3"},{"bufferView":1,"byteOffset":12264,"componentType":5126,"count":216,"type":"VEC3"},{"bufferView":1,"byteOffset":14856,"componentType":5126,"count":54,"type":"VEC3"},{"bufferView":1,"byteOffset":15504,"componentType":5126,"count":90,"type":"VEC3"},{"bufferView":1,"byteOffset":16584,"componentType":5126,"count":54,"type":"VEC3"},{"bufferView":1,"byteOffset":17232,"componentType":5126,"count":91,"type":"VEC3"},{"bufferView":1,"byteOffset":18324,"componentType":5126,"count":54,"type":"VEC3"},{"bufferView":1,"byteOffset":18972,"componentType":5126,"count":54,"type":"VEC3"},{"bufferView":1,"byteOffset":19620,"componentType":5126,"count":54,"type":"VEC3"},{"bufferView":1,"byteOffset":20268,"componentType":5126,"count":54,"type":"VEC3"},{"bufferView":1,"byteOffset":20916,"componentType":5126,"count":54,"type":"VEC3"},{"bufferView":1,"byteOffset":21564,"componentType":5126,"count":93,"type":"VEC3"},{"bufferView":1,"byteOffset":22680,"componentType":5126,"count":199,"type":"VEC3"},{"bufferView":1,"byteOffset":25068,"componentType":5126,"count":199,"type":"VEC3"},{"bufferView":2,"byteOffset":0,"componentType":5123,"count":72,"type":"SCALAR"},{"bufferView":2,"byteOffset":144,"componentType":5123,"count":156,"type":"SCALAR"},{"bufferView":2,"byteOffset":456,"componentType":5123,"count":1092,"type":"SCALAR"},{"bufferView":2,"byteOffset":2640,"componentType":5123,"count":72,"type":"SCALAR"},{"bufferView":2,"byteOffset":2784,"componentType":5123,"count":156,"type":"SCALAR"},{"bufferView":2,"byteOffset":3096,"componentType":5123,"count":1092,"type":"SCALAR"},{"bufferView":2,"byteOffset":5280,"componentType":5123,"count":156,"type":"SCALAR"},{"bufferView":2,"byteOffset":5592,"componentType":5123,"count":72,"type":"SCALAR"},{"bufferView":2,"byteOffset":5736,"componentType":5123,"count":156,"type":"SCALAR"},{"bufferView":2,"byteOffset":6048,"componentType":5123,"count":1092,"type":"SCALAR"},{"bufferView":2,"byteOffset":8232,"componentType":5123,"count":72,"type":"SCALAR"},{"bufferView":2,"byteOffset":8376,"componentType":5123,"count":156,"type":"SCALAR"},{"bufferView":2,"byteOffset":8688,"componentType":5123,"count":1092,"type":"SCALAR"},{"bufferView":2,"byteOffset":10872,"componentType":5123,"count":156,"type":"SCALAR"},{"bufferView":2,"byteOffset":11184,"componentType":5123,"count":264,"type":"SCALAR"},{"bufferView":2,"byteOffset":11712,"componentType":5123,"count":156,"type":"SCALAR"},{"bufferView":2,"byteOffset":12024,"componentType":5123,"count":267,"type":"SCALAR"},{"bufferView":2,"byteOffset":12560,"componentType":5123,"count":156,"type":"SCALAR"},{"bufferView":2,"byteOffset":12872,"componentType":5123,"count":156,"type":"SCALAR"},{"bufferView":2,"byteOffset":13184,"componentType":5123,"count":156,"type":"SCALAR"},{"bufferView":2,"byteOffset":13496,"componentType":5123,"count":156,"type":"SCALAR"},{"bufferView":2,"byteOffset":13808,"componentType":5123,"count":156,"type":"SCALAR"},{"bufferView":2,"byteOffset":14120,"componentType":5123,"count":273,"type":"SCALAR"},{"bufferView":2,"byteOffset":14668,"componentType":5123,"count":627,"type":"SCALAR"},{"bufferView":2,"byteOffset":15924,"componentType":5123,"count":627,"type":"SCALAR"}],"asset":{"generator":"Open CASCADE Technology 7.8 [dev.opencascade.org]","version":"2.0"},"bufferViews":[{"buffer":0,"byteLength":27456,"byteOffset":0,"byteStride":12,"target":34962},{"buffer":0,"byteLength":27456,"byteOffset":27456,"byteStride":12,"target":34962},{"buffer":0,"byteLength":17180,"byteOffset":54912,"target":34963}],"buffers":[{"byteLength":72092,"uri":"We-UKW EMI Supression 6-Hole Ferrite Bead.bin"}],"materials":[{"name":"mat_0","pbrMetallicRoughness":{"baseColorFactor":[0.9473065137863159,0.9473065137863159,0.9473065137863159,1.0]},"doubleSided":true},{"name":"mat_1","pbrMetallicRoughness":{"baseColorFactor":[0.03310476616024971,0.03310476616024971,0.03310476616024971,1.0]},"doubleSided":true}],"meshes":[{"name":"3","primitives":[{"attributes":{"NORMAL":25,"POSITION":0},"indices":50,"material":0,"mode":4},{"attributes":{"NORMAL":26,"POSITION":1},"indices":51,"material":0,"mode":4},{"attributes":{"NORMAL":27,"POSITION":2},"indices":52,"material":0,"mode":4},{"attributes":{"NORMAL":28,"POSITION":3},"indices":53,"material":0,"mode":4},{"attributes":{"NORMAL":29,"POSITION":4},"indices":54,"material":0,"mode":4},{"attributes":{"NORMAL":30,"POSITION":5},"indices":55,"material":0,"mode":4},{"attributes":{"NORMAL":31,"POSITION":6},"indices":56,"material":0,"mode":4}]},{"name":"1","primitives":[{"attributes":{"NORMAL":32,"POSITION":7},"indices":57,"material":0,"mode":4},{"attributes":{"NORMAL":33,"POSITION":8},"indices":58,"material":0,"mode":4},{"attributes":{"NORMAL":34,"POSITION":9},"indices":59,"material":0,"mode":4},{"attributes":{"NORMAL":35,"POSITION":10},"indices":60,"material":0,"mode":4},{"attributes":{"NORMAL":36,"POSITION":11},"indices":61,"material":0,"mode":4},{"attributes":{"NORMAL":37,"POSITION":12},"indices":62,"material":0,"mode":4},{"attributes":{"NORMAL":38,"POSITION":13},"indices":63,"material":0,"mode":4}]},{"name":"2","primitives":[{"attributes":{"NORMAL":39,"POSITION":14},"indices":64,"material":1,"mode":4},{"attributes":{"NORMAL":40,"POSITION":15},"indices":65,"material":1,"mode":4},{"attributes":{"NORMAL":41,"POSITION":16},"indices":66,"material":1,"mode":4},{"attributes":{"NORMAL":42,"POSITION":17},"indices":67,"material":1,"mode":4},{"attributes":{"NORMAL":43,"POSITION":18},"indices":68,"material":1,"mode":4},{"attributes":{"NORMAL":44,"POSITION":19},"indices":69,"material":1,"mode":4},{"attributes":{"NORMAL":45,"POSITION":20},"indices":70,"material":1,"mode":4},{"attributes":{"NORMAL":46,"POSITION":21},"indices":71,"material":1,"mode":4},{"attributes":{"NORMAL":47,"POSITION":22},"indices":72,"material":1,"mode":4},{"attributes":{"NORMAL":48,"POSITION":23},"indices":73,"material":1,"mode":4},{"attributes":{"NORMAL":49,"POSITION":24},"indices":74,"material":1,"mode":4}]}],"nodes":[{"children":[1,2,3],"name":"Unnamed4"},{"mesh":0,"name":"3"},{"mesh":1,"name":"1"},{"mesh":2,"name":"2"}],"scene":0,"scenes":[{"nodes":[0]}]}