{"accessors":[{"bufferView":0,"byteOffset":0,"componentType":5126,"count":4,"max":[0.00075,0.0025,0.001],"min":[-0.00075,0.0,0.001],"type":"VEC3"},{"bufferView":0,"byteOffset":48,"componentType":5126,"count":46,"max":[-0.00075,0.0025,0.001],"min":[-0.00175,0.0,-0.001],"type":"VEC3"},{"bufferView":0,"byteOffset":600,"componentType":5126,"count":108,"max":[0.00175,0.0,0.001],"min":[-0.00175,0.0,-0.001],"type":"VEC3"},{"bufferView":0,"byteOffset":1896,"componentType":5126,"count":46,"max":[0.00175,0.0025,0.001],"min":[0.00075,0.0,-0.001],"type":"VEC3"},{"bufferView":0,"byteOffset":2448,"componentType":5126,"count":108,"max":[0.00175,0.0025,0.001],"min":[-0.00175,0.0025,-0.001],"type":"VEC3"},{"bufferView":0,"byteOffset":3744,"componentType":5126,"count":4,"max":[0.00075,0.0025,-0.001],"min":[-0.00075,0.0,-0.001],"type":"VEC3"},{"bufferView":0,"byteOffset":3792,"componentType":5126,"count":64,"max":[0.0015,0.0025,0.0004993582535855265],"min":[0.0005025653383040525,0.0,-0.0004993582535855263],"type":"VEC3"},{"bufferView":0,"byteOffset":4560,"componentType":5126,"count":64,"max":[-0.0005,0.0025,0.0004993582535855264],"min":[-0.0014974346616959476,0.0,-0.0004993582535855264],"type":"VEC3"},{"bufferView":1,"byteOffset":0,"componentType":5126,"count":4,"type":"VEC3"},{"bufferView":1,"byteOffset":48,"componentType":5126,"count":46,"type":"VEC3"},{"bufferView":1,"byteOffset":600,"componentType":5126,"count":108,"type":"VEC3"},{"bufferView":1,"byteOffset":1896,"componentType":5126,"count":46,"type":"VEC3"},{"bufferView":1,"byteOffset":2448,"componentType":5126,"count":108,"type":"VEC3"},{"bufferView":1,"byteOffset":3744,"componentType":5126,"count":4,"type":"VEC3"},{"bufferView":1,"byteOffset":3792,"componentType":5126,"count":64,"type":"VEC3"},{"bufferView":1,"byteOffset":4560,"componentType":5126,"count":64,"type":"VEC3"},{"bufferView":2,"byteOffset":0,"componentType":5123,"count":6,"type":"SCALAR"},{"bufferView":2,"byteOffset":12,"componentType":5123,"count":132,"type":"SCALAR"},{"bufferView":2,"byteOffset":276,"componentType":5123,"count":330,"type":"SCALAR"},{"bufferView":2,"byteOffset":936,"componentType":5123,"count":132,"type":"SCALAR"},{"bufferView":2,"byteOffset":1200,"componentType":5123,"count":330,"type":"SCALAR"},{"bufferView":2,"byteOffset":1860,"componentType":5123,"count":6,"type":"SCALAR"},{"bufferView":2,"byteOffset":1872,"componentType":5123,"count":186,"type":"SCALAR"},{"bufferView":2,"byteOffset":2244,"componentType":5123,"count":186,"type":"SCALAR"}],"asset":{"generator":"Open CASCADE Technology 7.8 [dev.opencascade.org]","version":"2.0"},"bufferViews":[{"buffer":0,"byteLength":5328,"byteOffset":0,"byteStride":12,"target":34962},{"buffer":0,"byteLength":5328,"byteOffset":5328,"byteStride":12,"target":34962},{"buffer":0,"byteLength":2616,"byteOffset":10656,"target":34963}],"buffers":[{"byteLength":13272,"uri":"WE_RIB.bin"}],"materials":[{"name":"mat_0","pbrMetallicRoughness":{"baseColorFactor":[0.03310476616024971,0.03310476616024971,0.03310476616024971,1.0]},"doubleSided":true}],"meshes":[{"name":"1","primitives":[{"attributes":{"NORMAL":8,"POSITION":0},"indices":16,"material":0,"mode":4},{"attributes":{"NORMAL":9,"POSITION":1},"indices":17,"material":0,"mode":4},{"attributes":{"NORMAL":10,"POSITION":2},"indices":18,"material":0,"mode":4},{"attributes":{"NORMAL":11,"POSITION":3},"indices":19,"material":0,"mode":4},{"attributes":{"NORMAL":12,"POSITION":4},"indices":20,"material":0,"mode":4},{"attributes":{"NORMAL":13,"POSITION":5},"indices":21,"material":0,"mode":4},{"attributes":{"NORMAL":14,"POSITION":6},"indices":22,"material":0,"mode":4},{"attributes":{"NORMAL":15,"POSITION":7},"indices":23,"material":0,"mode":4}]}],"nodes":[{"mesh":0,"name":"1"}],"scene":0,"scenes":[{"nodes":[0]}]}