{"accessors":[{"bufferView":0,"byteOffset":0,"componentType":5126,"count":4,"max":[0.00175,0.0007,0.001],"min":[0.00175,-0.0007,-0.001],"type":"VEC3"},{"bufferView":0,"byteOffset":48,"componentType":5126,"count":4,"max":[0.00175,0.0007,0.001],"min":[-0.00175,-0.0007,0.001],"type":"VEC3"},{"bufferView":0,"byteOffset":96,"componentType":5126,"count":4,"max":[-0.00175,0.0007,0.001],"min":[-0.00175,-0.0007,-0.001],"type":"VEC3"},{"bufferView":0,"byteOffset":144,"componentType":5126,"count":4,"max":[0.00175,0.0007,-0.001],"min":[-0.00175,-0.0007,-0.001],"type":"VEC3"},{"bufferView":0,"byteOffset":192,"componentType":5126,"count":4,"max":[0.00175,-0.0007,0.001],"min":[-0.00175,-0.0007,-0.001],"type":"VEC3"},{"bufferView":0,"byteOffset":240,"componentType":5126,"count":4,"max":[0.00175,0.0007,0.001],"min":[-0.00175,0.0007,-0.001],"type":"VEC3"},{"bufferView":0,"byteOffset":288,"componentType":5126,"count":4,"max":[0.0009999999999999998,0.00025,0.0007],"min":[0.0009999999999999998,-0.00025,-0.0007],"type":"VEC3"},{"bufferView":0,"byteOffset":336,"componentType":5126,"count":4,"max":[0.0009999999999999998,0.00025,0.0007],"min":[-0.001,-0.00025,0.0007],"type":"VEC3"},{"bufferView":0,"byteOffset":384,"componentType":5126,"count":4,"max":[-0.001,0.00025,0.0007],"min":[-0.001,-0.00025,-0.0007],"type":"VEC3"},{"bufferView":0,"byteOffset":432,"componentType":5126,"count":4,"max":[0.0009999999999999998,0.00025,-0.0007],"min":[-0.001,-0.00025,-0.0007],"type":"VEC3"},{"bufferView":0,"byteOffset":480,"componentType":5126,"count":4,"max":[0.0009999999999999998,-0.00025,0.0007],"min":[-0.001,-0.00025,-0.0007],"type":"VEC3"},{"bufferView":0,"byteOffset":528,"componentType":5126,"count":4,"max":[0.0009999999999999998,0.00025,0.0007],"min":[-0.001,0.00025,-0.0007],"type":"VEC3"},{"bufferView":1,"byteOffset":0,"componentType":5126,"count":4,"type":"VEC3"},{"bufferView":1,"byteOffset":48,"componentType":5126,"count":4,"type":"VEC3"},{"bufferView":1,"byteOffset":96,"componentType":5126,"count":4,"type":"VEC3"},{"bufferView":1,"byteOffset":144,"componentType":5126,"count":4,"type":"VEC3"},{"bufferView":1,"byteOffset":192,"componentType":5126,"count":4,"type":"VEC3"},{"bufferView":1,"byteOffset":240,"componentType":5126,"count":4,"type":"VEC3"},{"bufferView":1,"byteOffset":288,"componentType":5126,"count":4,"type":"VEC3"},{"bufferView":1,"byteOffset":336,"componentType":5126,"count":4,"type":"VEC3"},{"bufferView":1,"byteOffset":384,"componentType":5126,"count":4,"type":"VEC3"},{"bufferView":1,"byteOffset":432,"componentType":5126,"count":4,"type":"VEC3"},{"bufferView":1,"byteOffset":480,"componentType":5126,"count":4,"type":"VEC3"},{"bufferView":1,"byteOffset":528,"componentType":5126,"count":4,"type":"VEC3"},{"bufferView":2,"byteOffset":0,"componentType":5123,"count":6,"type":"SCALAR"},{"bufferView":2,"byteOffset":12,"componentType":5123,"count":6,"type":"SCALAR"},{"bufferView":2,"byteOffset":24,"componentType":5123,"count":6,"type":"SCALAR"},{"bufferView":2,"byteOffset":36,"componentType":5123,"count":6,"type":"SCALAR"},{"bufferView":2,"byteOffset":48,"componentType":5123,"count":6,"type":"SCALAR"},{"bufferView":2,"byteOffset":60,"componentType":5123,"count":6,"type":"SCALAR"},{"bufferView":2,"byteOffset":72,"componentType":5123,"count":6,"type":"SCALAR"},{"bufferView":2,"byteOffset":84,"componentType":5123,"count":6,"type":"SCALAR"},{"bufferView":2,"byteOffset":96,"componentType":5123,"count":6,"type":"SCALAR"},{"bufferView":2,"byteOffset":108,"componentType":5123,"count":6,"type":"SCALAR"},{"bufferView":2,"byteOffset":120,"componentType":5123,"count":6,"type":"SCALAR"},{"bufferView":2,"byteOffset":132,"componentType":5123,"count":6,"type":"SCALAR"}],"asset":{"generator":"Open CASCADE Technology 7.8 [dev.opencascade.org]","version":"2.0"},"bufferViews":[{"buffer":0,"byteLength":576,"byteOffset":0,"byteStride":12,"target":34962},{"buffer":0,"byteLength":576,"byteOffset":576,"byteStride":12,"target":34962},{"buffer":0,"byteLength":144,"byteOffset":1152,"target":34963}],"buffers":[{"byteLength":1296,"uri":"WCAP-CSSA Interference Suppression.bin"}],"materials":[{"name":"mat_0","pbrMetallicRoughness":{"baseColorFactor":[0.013411748223006725,0.013411748223006725,0.013411748223006725,1.0]},"doubleSided":true},{"name":"mat_1","pbrMetallicRoughness":{"baseColorFactor":[0.37385088205337524,0.4185476303100586,0.4479883909225464,1.0]},"doubleSided":true}],"meshes":[{"name":"Body_4.5x2x1.4x0.5","primitives":[{"attributes":{"NORMAL":12,"POSITION":0},"indices":24,"material":0,"mode":4},{"attributes":{"NORMAL":13,"POSITION":1},"indices":25,"material":1,"mode":4},{"attributes":{"NORMAL":14,"POSITION":2},"indices":26,"material":0,"mode":4},{"attributes":{"NORMAL":15,"POSITION":3},"indices":27,"material":1,"mode":4},{"attributes":{"NORMAL":16,"POSITION":4},"indices":28,"material":1,"mode":4},{"attributes":{"NORMAL":17,"POSITION":5},"indices":29,"material":1,"mode":4}]},{"name":"Contact_2x1.4x0.5","primitives":[{"attributes":{"NORMAL":18,"POSITION":6},"indices":30,"material":0,"mode":4},{"attributes":{"NORMAL":19,"POSITION":7},"indices":31,"material":0,"mode":4},{"attributes":{"NORMAL":20,"POSITION":8},"indices":32,"material":0,"mode":4},{"attributes":{"NORMAL":21,"POSITION":9},"indices":33,"material":0,"mode":4},{"attributes":{"NORMAL":22,"POSITION":10},"indices":34,"material":0,"mode":4},{"attributes":{"NORMAL":23,"POSITION":11},"indices":35,"material":1,"mode":4}]},{"name":"Contact_2x1.4x0.5","primitives":[{"attributes":{"NORMAL":18,"POSITION":6},"indices":30,"material":0,"mode":4},{"attributes":{"NORMAL":19,"POSITION":7},"indices":31,"material":0,"mode":4},{"attributes":{"NORMAL":20,"POSITION":8},"indices":32,"material":0,"mode":4},{"attributes":{"NORMAL":21,"POSITION":9},"indices":33,"material":0,"mode":4},{"attributes":{"NORMAL":22,"POSITION":10},"indices":34,"material":0,"mode":4},{"attributes":{"NORMAL":23,"POSITION":11},"indices":35,"material":1,"mode":4}]}],"nodes":[{"children":[1,2,3],"name":"Assem1"},{"mesh":0,"name":"Body_4.5x2x1.4x0.5"},{"rotation":[0.49999999999999994,-0.5,0.5000000000000001,0.5],"translation":[0.002,-7.80625564189563e-18,-5.85256727844024e-18],"mesh":1,"name":"Contact_2x1.4x0.5"},{"rotation":[-0.5,-0.5,0.5,-0.5],"translation":[-0.002,1.47451495242589e-17,-1.2720561458238702e-17],"mesh":2,"name":"Contact_2x1.4x0.001"}],"scene":0,"scenes":[{"nodes":[0]}]}