{"accessors":[{"bufferView":0,"byteOffset":0,"componentType":5126,"count":4,"max":[-0.0005,0.00045000000000000004,0.0004],"min":[-0.0007700000000000001,0.00045000000000000004,-0.0004],"type":"VEC3"},{"bufferView":0,"byteOffset":48,"componentType":5126,"count":36,"max":[-0.00045000000000000004,0.00045000000000000004,0.0004],"min":[-0.0008,0.0,0.0004],"type":"VEC3"},{"bufferView":0,"byteOffset":480,"componentType":5126,"count":4,"max":[-0.0005,0.00045000000000000004,0.0004],"min":[-0.0005,0.00043,-0.0004],"type":"VEC3"},{"bufferView":0,"byteOffset":528,"componentType":5126,"count":4,"max":[-0.0008,0.00042,0.0004],"min":[-0.0008,0.00003,-0.0004],"type":"VEC3"},{"bufferView":0,"byteOffset":576,"componentType":5126,"count":4,"max":[-0.00045000000000000004,0.0,0.0004],"min":[-0.0007700000000000001,0.0,-0.0004],"type":"VEC3"},{"bufferView":0,"byteOffset":624,"componentType":5126,"count":16,"max":[-0.0007700000000000001,0.00045000000000000004,0.0004],"min":[-0.0008,0.00042,-0.0004],"type":"VEC3"},{"bufferView":0,"byteOffset":816,"componentType":5126,"count":16,"max":[-0.0007700000000000001,0.00043,0.0004],"min":[-0.0007800000000000001,0.00042,-0.0004],"type":"VEC3"},{"bufferView":0,"byteOffset":1008,"componentType":5126,"count":16,"max":[-0.0007700000000000001,0.00003,0.0004],"min":[-0.0007800000000000001,0.00002,-0.0004],"type":"VEC3"},{"bufferView":0,"byteOffset":1200,"componentType":5126,"count":16,"max":[-0.0007700000000000001,0.00003,0.0004],"min":[-0.0008,0.0,-0.0004],"type":"VEC3"},{"bufferView":0,"byteOffset":1392,"componentType":5126,"count":36,"max":[-0.00045000000000000004,0.00045000000000000004,-0.0004],"min":[-0.0008,0.0,-0.0004],"type":"VEC3"},{"bufferView":0,"byteOffset":1824,"componentType":5126,"count":4,"max":[-0.0005,0.00043,0.0004],"min":[-0.0007700000000000001,0.00043,-0.0004],"type":"VEC3"},{"bufferView":0,"byteOffset":1872,"componentType":5126,"count":4,"max":[-0.0007800000000000001,0.00042,0.0004],"min":[-0.0007800000000000001,0.00003,-0.0004],"type":"VEC3"},{"bufferView":0,"byteOffset":1920,"componentType":5126,"count":4,"max":[-0.00045000000000000004,0.00002,0.0004],"min":[-0.0007700000000000001,0.00002,-0.0004],"type":"VEC3"},{"bufferView":0,"byteOffset":1968,"componentType":5126,"count":4,"max":[-0.00045000000000000004,0.00002,0.0004],"min":[-0.00045000000000000004,0.0,-0.0004],"type":"VEC3"},{"bufferView":0,"byteOffset":2016,"componentType":5126,"count":36,"max":[0.0008,0.00045000000000000004,0.0004],"min":[0.00045000000000000004,0.0,0.0004],"type":"VEC3"},{"bufferView":0,"byteOffset":2448,"componentType":5126,"count":36,"max":[0.0008,0.00045000000000000004,-0.0004],"min":[0.00045000000000000004,0.0,-0.0004],"type":"VEC3"},{"bufferView":0,"byteOffset":2880,"componentType":5126,"count":4,"max":[0.0007700000000000001,0.00045000000000000004,0.0004],"min":[0.0005,0.00045000000000000004,-0.0004],"type":"VEC3"},{"bufferView":0,"byteOffset":2928,"componentType":5126,"count":4,"max":[0.0005,0.00045000000000000004,0.0004],"min":[0.0005,0.00043,-0.0004],"type":"VEC3"},{"bufferView":0,"byteOffset":2976,"componentType":5126,"count":4,"max":[0.0007700000000000001,0.00043,0.0004],"min":[0.0005,0.00043,-0.0004],"type":"VEC3"},{"bufferView":0,"byteOffset":3024,"componentType":5126,"count":4,"max":[0.0007800000000000001,0.00042,0.0004],"min":[0.0007800000000000001,0.00003,-0.0004],"type":"VEC3"},{"bufferView":0,"byteOffset":3072,"componentType":5126,"count":4,"max":[0.0007700000000000001,0.00002,0.0004],"min":[0.00045000000000000004,0.00002,-0.0004],"type":"VEC3"},{"bufferView":0,"byteOffset":3120,"componentType":5126,"count":4,"max":[0.00045000000000000004,0.00002,0.0004],"min":[0.00045000000000000004,0.0,-0.0004],"type":"VEC3"},{"bufferView":0,"byteOffset":3168,"componentType":5126,"count":4,"max":[0.0007700000000000001,0.0,0.0004],"min":[0.00045000000000000004,0.0,-0.0004],"type":"VEC3"},{"bufferView":0,"byteOffset":3216,"componentType":5126,"count":4,"max":[0.0008,0.00042,0.0004],"min":[0.0008,0.00003,-0.0004],"type":"VEC3"},{"bufferView":0,"byteOffset":3264,"componentType":5126,"count":16,"max":[0.0007800000000000001,0.00043,0.0004],"min":[0.0007700000000000001,0.00042,-0.0004],"type":"VEC3"},{"bufferView":0,"byteOffset":3456,"componentType":5126,"count":16,"max":[0.0007800000000000001,0.00003,0.0004],"min":[0.0007700000000000001,0.00002,-0.0004],"type":"VEC3"},{"bufferView":0,"byteOffset":3648,"componentType":5126,"count":16,"max":[0.0008,0.00003,0.0004],"min":[0.0007700000000000001,0.0,-0.0004],"type":"VEC3"},{"bufferView":0,"byteOffset":3840,"componentType":5126,"count":16,"max":[0.0008,0.00045000000000000004,0.0004],"min":[0.0007700000000000001,0.00042,-0.0004],"type":"VEC3"},{"bufferView":0,"byteOffset":4032,"componentType":5126,"count":16,"max":[0.0007800000000000001,0.00046,0.0004],"min":[0.0007700000000000001,0.00045000000000000004,-0.0004],"type":"VEC3"},{"bufferView":0,"byteOffset":4224,"componentType":5126,"count":16,"max":[0.0007800000000000001,0.0000599999999999992,0.0004],"min":[0.0007700000000000001,0.000049999999999999196,-0.0004],"type":"VEC3"},{"bufferView":0,"byteOffset":4416,"componentType":5126,"count":4,"max":[-0.0007800000000000001,0.00045000000000000004,0.0004],"min":[-0.0007800000000000001,0.0000599999999999992,-0.0004],"type":"VEC3"},{"bufferView":0,"byteOffset":4464,"componentType":5126,"count":4,"max":[0.0007700000000000001,0.000049999999999999196,0.0004],"min":[-0.0007700000000000001,0.000049999999999999196,-0.0004],"type":"VEC3"},{"bufferView":0,"byteOffset":4512,"componentType":5126,"count":16,"max":[-0.0007700000000000001,0.00046,0.0004],"min":[-0.0007800000000000001,0.00045000000000000004,-0.0004],"type":"VEC3"},{"bufferView":0,"byteOffset":4704,"componentType":5126,"count":16,"max":[-0.0007700000000000001,0.0000599999999999992,0.0004],"min":[-0.0007800000000000001,0.000049999999999999196,-0.0004],"type":"VEC3"},{"bufferView":0,"byteOffset":4896,"componentType":5126,"count":32,"max":[0.0007800000000000001,0.00046,-0.0004],"min":[-0.0007800000000000001,0.000049999999999999196,-0.0004],"type":"VEC3"},{"bufferView":0,"byteOffset":5280,"componentType":5126,"count":32,"max":[0.0007800000000000001,0.00046,0.0004],"min":[-0.0007800000000000001,0.000049999999999999196,0.0004],"type":"VEC3"},{"bufferView":0,"byteOffset":5664,"componentType":5126,"count":4,"max":[0.0007700000000000001,0.00046,0.0004],"min":[-0.0007700000000000001,0.00046,-0.0004],"type":"VEC3"},{"bufferView":0,"byteOffset":5712,"componentType":5126,"count":4,"max":[0.0007800000000000001,0.00045000000000000004,0.0004],"min":[0.0007800000000000001,0.0000599999999999992,-0.0004],"type":"VEC3"},{"bufferView":0,"byteOffset":5760,"componentType":5126,"count":4,"max":[0.000404606079858306,0.00007000000000000001,0.000304606079858306],"min":[-0.000404606079858306,0.00007000000000000001,-0.000304606079858306],"type":"VEC3"},{"bufferView":0,"byteOffset":5808,"componentType":5126,"count":4,"max":[0.0005,0.0,0.0004],"min":[-0.0005,0.0,-0.0004],"type":"VEC3"},{"bufferView":0,"byteOffset":5856,"componentType":5126,"count":16,"max":[0.0005,0.00007000000000000001,0.0004],"min":[0.000404606079858306,0.0,-0.0004],"type":"VEC3"},{"bufferView":0,"byteOffset":6048,"componentType":5126,"count":16,"max":[0.0005,0.00007000000000000001,-0.000304606079858306],"min":[-0.0005,0.0,-0.0004],"type":"VEC3"},{"bufferView":0,"byteOffset":6240,"componentType":5126,"count":16,"max":[0.0005,0.00007000000000000001,0.0004],"min":[-0.0005,0.0,0.000304606079858306],"type":"VEC3"},{"bufferView":0,"byteOffset":6432,"componentType":5126,"count":16,"max":[-0.000404606079858306,0.00007000000000000001,0.0004],"min":[-0.0005,0.0,-0.0004],"type":"VEC3"},{"bufferView":1,"byteOffset":0,"componentType":5126,"count":4,"type":"VEC3"},{"bufferView":1,"byteOffset":48,"componentType":5126,"count":36,"type":"VEC3"},{"bufferView":1,"byteOffset":480,"componentType":5126,"count":4,"type":"VEC3"},{"bufferView":1,"byteOffset":528,"componentType":5126,"count":4,"type":"VEC3"},{"bufferView":1,"byteOffset":576,"componentType":5126,"count":4,"type":"VEC3"},{"bufferView":1,"byteOffset":624,"componentType":5126,"count":16,"type":"VEC3"},{"bufferView":1,"byteOffset":816,"componentType":5126,"count":16,"type":"VEC3"},{"bufferView":1,"byteOffset":1008,"componentType":5126,"count":16,"type":"VEC3"},{"bufferView":1,"byteOffset":1200,"componentType":5126,"count":16,"type":"VEC3"},{"bufferView":1,"byteOffset":1392,"componentType":5126,"count":36,"type":"VEC3"},{"bufferView":1,"byteOffset":1824,"componentType":5126,"count":4,"type":"VEC3"},{"bufferView":1,"byteOffset":1872,"componentType":5126,"count":4,"type":"VEC3"},{"bufferView":1,"byteOffset":1920,"componentType":5126,"count":4,"type":"VEC3"},{"bufferView":1,"byteOffset":1968,"componentType":5126,"count":4,"type":"VEC3"},{"bufferView":1,"byteOffset":2016,"componentType":5126,"count":36,"type":"VEC3"},{"bufferView":1,"byteOffset":2448,"componentType":5126,"count":36,"type":"VEC3"},{"bufferView":1,"byteOffset":2880,"componentType":5126,"count":4,"type":"VEC3"},{"bufferView":1,"byteOffset":2928,"componentType":5126,"count":4,"type":"VEC3"},{"bufferView":1,"byteOffset":2976,"componentType":5126,"count":4,"type":"VEC3"},{"bufferView":1,"byteOffset":3024,"componentType":5126,"count":4,"type":"VEC3"},{"bufferView":1,"byteOffset":3072,"componentType":5126,"count":4,"type":"VEC3"},{"bufferView":1,"byteOffset":3120,"componentType":5126,"count":4,"type":"VEC3"},{"bufferView":1,"byteOffset":3168,"componentType":5126,"count":4,"type":"VEC3"},{"bufferView":1,"byteOffset":3216,"componentType":5126,"count":4,"type":"VEC3"},{"bufferView":1,"byteOffset":3264,"componentType":5126,"count":16,"type":"VEC3"},{"bufferView":1,"byteOffset":3456,"componentType":5126,"count":16,"type":"VEC3"},{"bufferView":1,"byteOffset":3648,"componentType":5126,"count":16,"type":"VEC3"},{"bufferView":1,"byteOffset":3840,"componentType":5126,"count":16,"type":"VEC3"},{"bufferView":1,"byteOffset":4032,"componentType":5126,"count":16,"type":"VEC3"},{"bufferView":1,"byteOffset":4224,"componentType":5126,"count":16,"type":"VEC3"},{"bufferView":1,"byteOffset":4416,"componentType":5126,"count":4,"type":"VEC3"},{"bufferView":1,"byteOffset":4464,"componentType":5126,"count":4,"type":"VEC3"},{"bufferView":1,"byteOffset":4512,"componentType":5126,"count":16,"type":"VEC3"},{"bufferView":1,"byteOffset":4704,"componentType":5126,"count":16,"type":"VEC3"},{"bufferView":1,"byteOffset":4896,"componentType":5126,"count":32,"type":"VEC3"},{"bufferView":1,"byteOffset":5280,"componentType":5126,"count":32,"type":"VEC3"},{"bufferView":1,"byteOffset":5664,"componentType":5126,"count":4,"type":"VEC3"},{"bufferView":1,"byteOffset":5712,"componentType":5126,"count":4,"type":"VEC3"},{"bufferView":1,"byteOffset":5760,"componentType":5126,"count":4,"type":"VEC3"},{"bufferView":1,"byteOffset":5808,"componentType":5126,"count":4,"type":"VEC3"},{"bufferView":1,"byteOffset":5856,"componentType":5126,"count":16,"type":"VEC3"},{"bufferView":1,"byteOffset":6048,"componentType":5126,"count":16,"type":"VEC3"},{"bufferView":1,"byteOffset":6240,"componentType":5126,"count":16,"type":"VEC3"},{"bufferView":1,"byteOffset":6432,"componentType":5126,"count":16,"type":"VEC3"},{"bufferView":2,"byteOffset":0,"componentType":5123,"count":6,"type":"SCALAR"},{"bufferView":2,"byteOffset":12,"componentType":5123,"count":102,"type":"SCALAR"},{"bufferView":2,"byteOffset":216,"componentType":5123,"count":6,"type":"SCALAR"},{"bufferView":2,"byteOffset":228,"componentType":5123,"count":6,"type":"SCALAR"},{"bufferView":2,"byteOffset":240,"componentType":5123,"count":6,"type":"SCALAR"},{"bufferView":2,"byteOffset":252,"componentType":5123,"count":42,"type":"SCALAR"},{"bufferView":2,"byteOffset":336,"componentType":5123,"count":42,"type":"SCALAR"},{"bufferView":2,"byteOffset":420,"componentType":5123,"count":42,"type":"SCALAR"},{"bufferView":2,"byteOffset":504,"componentType":5123,"count":42,"type":"SCALAR"},{"bufferView":2,"byteOffset":588,"componentType":5123,"count":102,"type":"SCALAR"},{"bufferView":2,"byteOffset":792,"componentType":5123,"count":6,"type":"SCALAR"},{"bufferView":2,"byteOffset":804,"componentType":5123,"count":6,"type":"SCALAR"},{"bufferView":2,"byteOffset":816,"componentType":5123,"count":6,"type":"SCALAR"},{"bufferView":2,"byteOffset":828,"componentType":5123,"count":6,"type":"SCALAR"},{"bufferView":2,"byteOffset":840,"componentType":5123,"count":102,"type":"SCALAR"},{"bufferView":2,"byteOffset":1044,"componentType":5123,"count":102,"type":"SCALAR"},{"bufferView":2,"byteOffset":1248,"componentType":5123,"count":6,"type":"SCALAR"},{"bufferView":2,"byteOffset":1260,"componentType":5123,"count":6,"type":"SCALAR"},{"bufferView":2,"byteOffset":1272,"componentType":5123,"count":6,"type":"SCALAR"},{"bufferView":2,"byteOffset":1284,"componentType":5123,"count":6,"type":"SCALAR"},{"bufferView":2,"byteOffset":1296,"componentType":5123,"count":6,"type":"SCALAR"},{"bufferView":2,"byteOffset":1308,"componentType":5123,"count":6,"type":"SCALAR"},{"bufferView":2,"byteOffset":1320,"componentType":5123,"count":6,"type":"SCALAR"},{"bufferView":2,"byteOffset":1332,"componentType":5123,"count":6,"type":"SCALAR"},{"bufferView":2,"byteOffset":1344,"componentType":5123,"count":42,"type":"SCALAR"},{"bufferView":2,"byteOffset":1428,"componentType":5123,"count":42,"type":"SCALAR"},{"bufferView":2,"byteOffset":1512,"componentType":5123,"count":42,"type":"SCALAR"},{"bufferView":2,"byteOffset":1596,"componentType":5123,"count":42,"type":"SCALAR"},{"bufferView":2,"byteOffset":1680,"componentType":5123,"count":42,"type":"SCALAR"},{"bufferView":2,"byteOffset":1764,"componentType":5123,"count":42,"type":"SCALAR"},{"bufferView":2,"byteOffset":1848,"componentType":5123,"count":6,"type":"SCALAR"},{"bufferView":2,"byteOffset":1860,"componentType":5123,"count":6,"type":"SCALAR"},{"bufferView":2,"byteOffset":1872,"componentType":5123,"count":42,"type":"SCALAR"},{"bufferView":2,"byteOffset":1956,"componentType":5123,"count":42,"type":"SCALAR"},{"bufferView":2,"byteOffset":2040,"componentType":5123,"count":90,"type":"SCALAR"},{"bufferView":2,"byteOffset":2220,"componentType":5123,"count":90,"type":"SCALAR"},{"bufferView":2,"byteOffset":2400,"componentType":5123,"count":6,"type":"SCALAR"},{"bufferView":2,"byteOffset":2412,"componentType":5123,"count":6,"type":"SCALAR"},{"bufferView":2,"byteOffset":2424,"componentType":5123,"count":6,"type":"SCALAR"},{"bufferView":2,"byteOffset":2436,"componentType":5123,"count":6,"type":"SCALAR"},{"bufferView":2,"byteOffset":2448,"componentType":5123,"count":42,"type":"SCALAR"},{"bufferView":2,"byteOffset":2532,"componentType":5123,"count":42,"type":"SCALAR"},{"bufferView":2,"byteOffset":2616,"componentType":5123,"count":42,"type":"SCALAR"},{"bufferView":2,"byteOffset":2700,"componentType":5123,"count":42,"type":"SCALAR"}],"asset":{"generator":"Open CASCADE Technology 7.8 [dev.opencascade.org]","version":"2.0"},"bufferViews":[{"buffer":0,"byteLength":6624,"byteOffset":0,"byteStride":12,"target":34962},{"buffer":0,"byteLength":6624,"byteOffset":6624,"byteStride":12,"target":34962},{"buffer":0,"byteLength":2784,"byteOffset":13248,"target":34963}],"buffers":[{"byteLength":16032,"uri":"WE-VE femtoF.bin"}],"materials":[{"name":"mat_0","pbrMetallicRoughness":{"baseColorFactor":[0.4479883909225464,0.4479883909225464,0.4479883909225464,1.0]},"doubleSided":true},{"name":"mat_1","pbrMetallicRoughness":{"baseColorFactor":[1.0,1.0,1.0,1.0]},"doubleSided":true},{"name":"mat_2","pbrMetallicRoughness":{"baseColorFactor":[0.0,0.21404114365577698,0.0,1.0]},"doubleSided":true}],"meshes":[{"name":"contacs","primitives":[{"attributes":{"NORMAL":44,"POSITION":0},"indices":88,"material":0,"mode":4},{"attributes":{"NORMAL":45,"POSITION":1},"indices":89,"material":0,"mode":4},{"attributes":{"NORMAL":46,"POSITION":2},"indices":90,"material":0,"mode":4},{"attributes":{"NORMAL":47,"POSITION":3},"indices":91,"material":0,"mode":4},{"attributes":{"NORMAL":48,"POSITION":4},"indices":92,"material":0,"mode":4},{"attributes":{"NORMAL":49,"POSITION":5},"indices":93,"material":0,"mode":4},{"attributes":{"NORMAL":50,"POSITION":6},"indices":94,"material":0,"mode":4},{"attributes":{"NORMAL":51,"POSITION":7},"indices":95,"material":0,"mode":4},{"attributes":{"NORMAL":52,"POSITION":8},"indices":96,"material":0,"mode":4},{"attributes":{"NORMAL":53,"POSITION":9},"indices":97,"material":0,"mode":4},{"attributes":{"NORMAL":54,"POSITION":10},"indices":98,"material":0,"mode":4},{"attributes":{"NORMAL":55,"POSITION":11},"indices":99,"material":0,"mode":4},{"attributes":{"NORMAL":56,"POSITION":12},"indices":100,"material":0,"mode":4},{"attributes":{"NORMAL":57,"POSITION":13},"indices":101,"material":0,"mode":4}]},{"name":"contacs001","primitives":[{"attributes":{"NORMAL":58,"POSITION":14},"indices":102,"material":0,"mode":4},{"attributes":{"NORMAL":59,"POSITION":15},"indices":103,"material":0,"mode":4},{"attributes":{"NORMAL":60,"POSITION":16},"indices":104,"material":0,"mode":4},{"attributes":{"NORMAL":61,"POSITION":17},"indices":105,"material":0,"mode":4},{"attributes":{"NORMAL":62,"POSITION":18},"indices":106,"material":0,"mode":4},{"attributes":{"NORMAL":63,"POSITION":19},"indices":107,"material":0,"mode":4},{"attributes":{"NORMAL":64,"POSITION":20},"indices":108,"material":0,"mode":4},{"attributes":{"NORMAL":65,"POSITION":21},"indices":109,"material":0,"mode":4},{"attributes":{"NORMAL":66,"POSITION":22},"indices":110,"material":0,"mode":4},{"attributes":{"NORMAL":67,"POSITION":23},"indices":111,"material":0,"mode":4},{"attributes":{"NORMAL":68,"POSITION":24},"indices":112,"material":0,"mode":4},{"attributes":{"NORMAL":69,"POSITION":25},"indices":113,"material":0,"mode":4},{"attributes":{"NORMAL":70,"POSITION":26},"indices":114,"material":0,"mode":4},{"attributes":{"NORMAL":71,"POSITION":27},"indices":115,"material":0,"mode":4}]},{"name":"ceramic substrate","primitives":[{"attributes":{"NORMAL":72,"POSITION":28},"indices":116,"material":1,"mode":4},{"attributes":{"NORMAL":73,"POSITION":29},"indices":117,"material":1,"mode":4},{"attributes":{"NORMAL":74,"POSITION":30},"indices":118,"material":1,"mode":4},{"attributes":{"NORMAL":75,"POSITION":31},"indices":119,"material":1,"mode":4},{"attributes":{"NORMAL":76,"POSITION":32},"indices":120,"material":1,"mode":4},{"attributes":{"NORMAL":77,"POSITION":33},"indices":121,"material":1,"mode":4},{"attributes":{"NORMAL":78,"POSITION":34},"indices":122,"material":1,"mode":4},{"attributes":{"NORMAL":79,"POSITION":35},"indices":123,"material":1,"mode":4},{"attributes":{"NORMAL":80,"POSITION":36},"indices":124,"material":1,"mode":4},{"attributes":{"NORMAL":81,"POSITION":37},"indices":125,"material":1,"mode":4}]},{"name":"Over Coat","primitives":[{"attributes":{"NORMAL":82,"POSITION":38},"indices":126,"material":2,"mode":4},{"attributes":{"NORMAL":83,"POSITION":39},"indices":127,"material":2,"mode":4},{"attributes":{"NORMAL":84,"POSITION":40},"indices":128,"material":2,"mode":4},{"attributes":{"NORMAL":85,"POSITION":41},"indices":129,"material":2,"mode":4},{"attributes":{"NORMAL":86,"POSITION":42},"indices":130,"material":2,"mode":4},{"attributes":{"NORMAL":87,"POSITION":43},"indices":131,"material":2,"mode":4}]}],"nodes":[{"children":[1,2,3,4],"name":"Assem1"},{"mesh":0,"name":"contacs"},{"mesh":1,"name":"contacs001"},{"translation":[0.0,-0.0000299999999999991,-3.2526065174565102e-18],"mesh":2,"name":"ceramic substrate"},{"translation":[0.0,0.00043,1.51788304147971e-18],"mesh":3,"name":"Over Coat"}],"scene":0,"scenes":[{"nodes":[0]}]}